%TF.GenerationSoftware,KiCad,Pcbnew,(5.1.10)-1*%
%TF.CreationDate,2021-11-14T07:07:01-06:00*%
%TF.ProjectId,SeniorDes_PCB,53656e69-6f72-4446-9573-5f5043422e6b,rev?*%
%TF.SameCoordinates,Original*%
%TF.FileFunction,Legend,Top*%
%TF.FilePolarity,Positive*%
%FSLAX46Y46*%
G04 Gerber Fmt 4.6, Leading zero omitted, Abs format (unit mm)*
G04 Created by KiCad (PCBNEW (5.1.10)-1) date 2021-11-14 07:07:01*
%MOMM*%
%LPD*%
G01*
G04 APERTURE LIST*
%ADD10C,0.120000*%
%ADD11C,0.200000*%
%ADD12C,0.127000*%
%ADD13C,0.150000*%
G04 APERTURE END LIST*
D10*
%TO.C,U3*%
X164205831Y-64801100D02*
X163561100Y-64801100D01*
X168818900Y-65445831D02*
X168818900Y-64801100D01*
X168174169Y-70058900D02*
X168818900Y-70058900D01*
X163561100Y-69414169D02*
X163561100Y-70058900D01*
X163561100Y-64801100D02*
X163561100Y-65445831D01*
X168818900Y-64801100D02*
X168174169Y-64801100D01*
X168818900Y-70058900D02*
X168818900Y-69414169D01*
X163561100Y-70058900D02*
X164205831Y-70058900D01*
D11*
%TO.C,U2*%
X140540000Y-78980000D02*
G75*
G03*
X140540000Y-78980000I-100000J0D01*
G01*
D12*
X148140000Y-78280000D02*
X147885000Y-78280000D01*
X148140000Y-78535000D02*
X148140000Y-78280000D01*
X148140000Y-85280000D02*
X147885000Y-85280000D01*
X148140000Y-85025000D02*
X148140000Y-85280000D01*
X141140000Y-85280000D02*
X141395000Y-85280000D01*
X141140000Y-85025000D02*
X141140000Y-85280000D01*
X141140000Y-78280000D02*
X141395000Y-78280000D01*
X141140000Y-78535000D02*
X141140000Y-78280000D01*
D11*
%TO.C,U1*%
X125390000Y-58980000D02*
G75*
G03*
X125390000Y-58980000I-100000J0D01*
G01*
D12*
X119740000Y-65230000D02*
X126240000Y-65230000D01*
X119740000Y-61730000D02*
X119740000Y-65230000D01*
X126240000Y-61730000D02*
X119740000Y-61730000D01*
X126240000Y-65230000D02*
X126240000Y-61730000D01*
D10*
%TO.C,SW2*%
X176915000Y-99580000D02*
X175990000Y-99580000D01*
X180790000Y-101705000D02*
X180790000Y-101155000D01*
X175890000Y-101705000D02*
X175890000Y-101155000D01*
X180690000Y-103280000D02*
X175990000Y-103280000D01*
X180690000Y-99580000D02*
X179765000Y-99580000D01*
%TO.C,SW1*%
X177115000Y-112530000D02*
X176190000Y-112530000D01*
X180990000Y-114655000D02*
X180990000Y-114105000D01*
X176090000Y-114655000D02*
X176090000Y-114105000D01*
X180890000Y-116230000D02*
X176190000Y-116230000D01*
X180890000Y-112530000D02*
X179965000Y-112530000D01*
%TO.C,R14*%
X192786359Y-43060000D02*
X193093641Y-43060000D01*
X192786359Y-42300000D02*
X193093641Y-42300000D01*
%TO.C,R13*%
X171821360Y-44455001D02*
X172128642Y-44455001D01*
X171821360Y-43695001D02*
X172128642Y-43695001D01*
%TO.C,R12*%
X129736359Y-94810000D02*
X130043641Y-94810000D01*
X129736359Y-94050000D02*
X130043641Y-94050000D01*
%TO.C,R11*%
X140376359Y-106810000D02*
X140683641Y-106810000D01*
X140376359Y-106050000D02*
X140683641Y-106050000D01*
%TO.C,R10*%
X86886359Y-88260000D02*
X87193641Y-88260000D01*
X86886359Y-87500000D02*
X87193641Y-87500000D01*
%TO.C,R9*%
X91586359Y-87110000D02*
X91893641Y-87110000D01*
X91586359Y-86350000D02*
X91893641Y-86350000D01*
%TO.C,R8*%
X95386359Y-91260000D02*
X95693641Y-91260000D01*
X95386359Y-90500000D02*
X95693641Y-90500000D01*
%TO.C,R7*%
X89536359Y-92010000D02*
X89843641Y-92010000D01*
X89536359Y-91250000D02*
X89843641Y-91250000D01*
%TO.C,R6*%
X179071360Y-66955001D02*
X179378642Y-66955001D01*
X179071360Y-66195001D02*
X179378642Y-66195001D01*
%TO.C,R5*%
X168471360Y-77145001D02*
X168778642Y-77145001D01*
X168471360Y-76385001D02*
X168778642Y-76385001D01*
%TO.C,R4*%
X173001360Y-72115001D02*
X173308642Y-72115001D01*
X173001360Y-71355001D02*
X173308642Y-71355001D01*
%TO.C,R3*%
X179071360Y-64965001D02*
X179378642Y-64965001D01*
X179071360Y-64205001D02*
X179378642Y-64205001D01*
%TO.C,R2*%
X149436359Y-64960000D02*
X149743641Y-64960000D01*
X149436359Y-64200000D02*
X149743641Y-64200000D01*
%TO.C,R1*%
X188636359Y-108210000D02*
X188943641Y-108210000D01*
X188636359Y-107450000D02*
X188943641Y-107450000D01*
%TO.C,Q2*%
X124610000Y-101880000D02*
X128210000Y-101880000D01*
X128248478Y-101868478D02*
G75*
G03*
X126410000Y-97430000I-1838478J1838478D01*
G01*
X124571522Y-101868478D02*
G75*
G02*
X126410000Y-97430000I1838478J1838478D01*
G01*
%TO.C,Q1*%
X141210000Y-113030000D02*
X144810000Y-113030000D01*
X144848478Y-113018478D02*
G75*
G03*
X143010000Y-108580000I-1838478J1838478D01*
G01*
X141171522Y-113018478D02*
G75*
G02*
X143010000Y-108580000I1838478J1838478D01*
G01*
%TO.C,L1*%
X135377221Y-80240000D02*
X135702779Y-80240000D01*
X135377221Y-79220000D02*
X135702779Y-79220000D01*
%TO.C,J2*%
X151440000Y-136380000D02*
X135540000Y-136380000D01*
X151440000Y-141430000D02*
X151440000Y-136380000D01*
X150940000Y-141180000D02*
X151440000Y-141430000D01*
X150940000Y-146580000D02*
X150940000Y-141180000D01*
X151440000Y-146330000D02*
X150940000Y-146580000D01*
X151440000Y-148330000D02*
X151440000Y-146330000D01*
X150940000Y-148030000D02*
X151440000Y-148330000D01*
X150940000Y-148980000D02*
X150940000Y-148030000D01*
X135540000Y-148980000D02*
X150940000Y-148980000D01*
X135540000Y-136380000D02*
X135540000Y-148980000D01*
%TO.C,J1*%
X183690000Y-55392500D02*
X183690000Y-54942500D01*
X183690000Y-55392500D02*
X183240000Y-55392500D01*
X178090000Y-54842500D02*
X178540000Y-54842500D01*
X178090000Y-52992500D02*
X178090000Y-54842500D01*
X185890000Y-50442500D02*
X185890000Y-50692500D01*
X178090000Y-50442500D02*
X178090000Y-50692500D01*
X185890000Y-52992500D02*
X185890000Y-54842500D01*
X185890000Y-54842500D02*
X185440000Y-54842500D01*
%TO.C,D4*%
X198610001Y-58570001D02*
X201295001Y-58570001D01*
X198610001Y-56650001D02*
X198610001Y-58570001D01*
X201295001Y-56650001D02*
X198610001Y-56650001D01*
%TO.C,D3*%
X187905000Y-61990000D02*
X190590000Y-61990000D01*
X187905000Y-60070000D02*
X187905000Y-61990000D01*
X190590000Y-60070000D02*
X187905000Y-60070000D01*
%TO.C,D2*%
X186567500Y-69090000D02*
X189252500Y-69090000D01*
X186567500Y-67170000D02*
X186567500Y-69090000D01*
X189252500Y-67170000D02*
X186567500Y-67170000D01*
%TO.C,D1*%
X194160001Y-58570001D02*
X196845001Y-58570001D01*
X194160001Y-56650001D02*
X194160001Y-58570001D01*
X196845001Y-56650001D02*
X194160001Y-56650001D01*
%TO.C,C10*%
X167152164Y-59590000D02*
X167367836Y-59590000D01*
X167152164Y-58870000D02*
X167367836Y-58870000D01*
%TO.C,C9*%
X184282164Y-93940000D02*
X184497836Y-93940000D01*
X184282164Y-93220000D02*
X184497836Y-93220000D01*
%TO.C,C8*%
X115299420Y-61940000D02*
X115580580Y-61940000D01*
X115299420Y-60920000D02*
X115580580Y-60920000D01*
%TO.C,C7*%
X132037165Y-74305001D02*
X132252837Y-74305001D01*
X132037165Y-73585001D02*
X132252837Y-73585001D01*
%TO.C,C6*%
X134947165Y-72505001D02*
X135162837Y-72505001D01*
X134947165Y-71785001D02*
X135162837Y-71785001D01*
%TO.C,C5*%
X184307165Y-112205001D02*
X184522837Y-112205001D01*
X184307165Y-111485001D02*
X184522837Y-111485001D01*
%TO.C,C4*%
X144682164Y-72240000D02*
X144897836Y-72240000D01*
X144682164Y-71520000D02*
X144897836Y-71520000D01*
%TO.C,C3*%
X140524420Y-67590000D02*
X140805580Y-67590000D01*
X140524420Y-66570000D02*
X140805580Y-66570000D01*
%TO.C,C2*%
X184307165Y-114175001D02*
X184522837Y-114175001D01*
X184307165Y-113455001D02*
X184522837Y-113455001D01*
%TO.C,C1*%
X117499420Y-57790000D02*
X117780580Y-57790000D01*
X117499420Y-56770000D02*
X117780580Y-56770000D01*
%TO.C,U3*%
D13*
X165428095Y-66882380D02*
X165428095Y-67691904D01*
X165475714Y-67787142D01*
X165523333Y-67834761D01*
X165618571Y-67882380D01*
X165809047Y-67882380D01*
X165904285Y-67834761D01*
X165951904Y-67787142D01*
X165999523Y-67691904D01*
X165999523Y-66882380D01*
X166380476Y-66882380D02*
X166999523Y-66882380D01*
X166666190Y-67263333D01*
X166809047Y-67263333D01*
X166904285Y-67310952D01*
X166951904Y-67358571D01*
X166999523Y-67453809D01*
X166999523Y-67691904D01*
X166951904Y-67787142D01*
X166904285Y-67834761D01*
X166809047Y-67882380D01*
X166523333Y-67882380D01*
X166428095Y-67834761D01*
X166380476Y-67787142D01*
X161904285Y-67787142D02*
X161856666Y-67834761D01*
X161713809Y-67882380D01*
X161618571Y-67882380D01*
X161475714Y-67834761D01*
X161380476Y-67739523D01*
X161332857Y-67644285D01*
X161285238Y-67453809D01*
X161285238Y-67310952D01*
X161332857Y-67120476D01*
X161380476Y-67025238D01*
X161475714Y-66930000D01*
X161618571Y-66882380D01*
X161713809Y-66882380D01*
X161856666Y-66930000D01*
X161904285Y-66977619D01*
X162332857Y-67882380D02*
X162332857Y-66882380D01*
X162713809Y-66882380D01*
X162809047Y-66930000D01*
X162856666Y-66977619D01*
X162904285Y-67072857D01*
X162904285Y-67215714D01*
X162856666Y-67310952D01*
X162809047Y-67358571D01*
X162713809Y-67406190D01*
X162332857Y-67406190D01*
X163285238Y-66977619D02*
X163332857Y-66930000D01*
X163428095Y-66882380D01*
X163666190Y-66882380D01*
X163761428Y-66930000D01*
X163809047Y-66977619D01*
X163856666Y-67072857D01*
X163856666Y-67168095D01*
X163809047Y-67310952D01*
X163237619Y-67882380D01*
X163856666Y-67882380D01*
X164809047Y-67882380D02*
X164237619Y-67882380D01*
X164523333Y-67882380D02*
X164523333Y-66882380D01*
X164428095Y-67025238D01*
X164332857Y-67120476D01*
X164237619Y-67168095D01*
X165428095Y-66882380D02*
X165523333Y-66882380D01*
X165618571Y-66930000D01*
X165666190Y-66977619D01*
X165713809Y-67072857D01*
X165761428Y-67263333D01*
X165761428Y-67501428D01*
X165713809Y-67691904D01*
X165666190Y-67787142D01*
X165618571Y-67834761D01*
X165523333Y-67882380D01*
X165428095Y-67882380D01*
X165332857Y-67834761D01*
X165285238Y-67787142D01*
X165237619Y-67691904D01*
X165190000Y-67501428D01*
X165190000Y-67263333D01*
X165237619Y-67072857D01*
X165285238Y-66977619D01*
X165332857Y-66930000D01*
X165428095Y-66882380D01*
X166094761Y-66882380D02*
X166713809Y-66882380D01*
X166380476Y-67263333D01*
X166523333Y-67263333D01*
X166618571Y-67310952D01*
X166666190Y-67358571D01*
X166713809Y-67453809D01*
X166713809Y-67691904D01*
X166666190Y-67787142D01*
X166618571Y-67834761D01*
X166523333Y-67882380D01*
X166237619Y-67882380D01*
X166142380Y-67834761D01*
X166094761Y-67787142D01*
X167142380Y-67501428D02*
X167904285Y-67501428D01*
X168904285Y-66930000D02*
X168809047Y-66882380D01*
X168666190Y-66882380D01*
X168523333Y-66930000D01*
X168428095Y-67025238D01*
X168380476Y-67120476D01*
X168332857Y-67310952D01*
X168332857Y-67453809D01*
X168380476Y-67644285D01*
X168428095Y-67739523D01*
X168523333Y-67834761D01*
X168666190Y-67882380D01*
X168761428Y-67882380D01*
X168904285Y-67834761D01*
X168951904Y-67787142D01*
X168951904Y-67453809D01*
X168761428Y-67453809D01*
X169380476Y-67882380D02*
X169380476Y-66882380D01*
X169713809Y-67596666D01*
X170047142Y-66882380D01*
X170047142Y-67882380D01*
X171094761Y-67882380D02*
X170761428Y-67406190D01*
X170523333Y-67882380D02*
X170523333Y-66882380D01*
X170904285Y-66882380D01*
X170999523Y-66930000D01*
X171047142Y-66977619D01*
X171094761Y-67072857D01*
X171094761Y-67215714D01*
X171047142Y-67310952D01*
X170999523Y-67358571D01*
X170904285Y-67406190D01*
X170523333Y-67406190D01*
X166190000Y-66882380D02*
X166190000Y-67120476D01*
X165951904Y-67025238D02*
X166190000Y-67120476D01*
X166428095Y-67025238D01*
X166047142Y-67310952D02*
X166190000Y-67120476D01*
X166332857Y-67310952D01*
%TO.C,U2*%
X143553095Y-76597380D02*
X143553095Y-77406904D01*
X143600714Y-77502142D01*
X143648333Y-77549761D01*
X143743571Y-77597380D01*
X143934047Y-77597380D01*
X144029285Y-77549761D01*
X144076904Y-77502142D01*
X144124523Y-77406904D01*
X144124523Y-76597380D01*
X144553095Y-76692619D02*
X144600714Y-76645000D01*
X144695952Y-76597380D01*
X144934047Y-76597380D01*
X145029285Y-76645000D01*
X145076904Y-76692619D01*
X145124523Y-76787857D01*
X145124523Y-76883095D01*
X145076904Y-77025952D01*
X144505476Y-77597380D01*
X145124523Y-77597380D01*
%TO.C,U1*%
X127077380Y-63416904D02*
X127886904Y-63416904D01*
X127982142Y-63369285D01*
X128029761Y-63321666D01*
X128077380Y-63226428D01*
X128077380Y-63035952D01*
X128029761Y-62940714D01*
X127982142Y-62893095D01*
X127886904Y-62845476D01*
X127077380Y-62845476D01*
X128077380Y-61845476D02*
X128077380Y-62416904D01*
X128077380Y-62131190D02*
X127077380Y-62131190D01*
X127220238Y-62226428D01*
X127315476Y-62321666D01*
X127363095Y-62416904D01*
%TO.C,SW2*%
X177006666Y-97334761D02*
X177149523Y-97382380D01*
X177387619Y-97382380D01*
X177482857Y-97334761D01*
X177530476Y-97287142D01*
X177578095Y-97191904D01*
X177578095Y-97096666D01*
X177530476Y-97001428D01*
X177482857Y-96953809D01*
X177387619Y-96906190D01*
X177197142Y-96858571D01*
X177101904Y-96810952D01*
X177054285Y-96763333D01*
X177006666Y-96668095D01*
X177006666Y-96572857D01*
X177054285Y-96477619D01*
X177101904Y-96430000D01*
X177197142Y-96382380D01*
X177435238Y-96382380D01*
X177578095Y-96430000D01*
X177911428Y-96382380D02*
X178149523Y-97382380D01*
X178340000Y-96668095D01*
X178530476Y-97382380D01*
X178768571Y-96382380D01*
X179101904Y-96477619D02*
X179149523Y-96430000D01*
X179244761Y-96382380D01*
X179482857Y-96382380D01*
X179578095Y-96430000D01*
X179625714Y-96477619D01*
X179673333Y-96572857D01*
X179673333Y-96668095D01*
X179625714Y-96810952D01*
X179054285Y-97382380D01*
X179673333Y-97382380D01*
%TO.C,SW1*%
X177206666Y-110284761D02*
X177349523Y-110332380D01*
X177587619Y-110332380D01*
X177682857Y-110284761D01*
X177730476Y-110237142D01*
X177778095Y-110141904D01*
X177778095Y-110046666D01*
X177730476Y-109951428D01*
X177682857Y-109903809D01*
X177587619Y-109856190D01*
X177397142Y-109808571D01*
X177301904Y-109760952D01*
X177254285Y-109713333D01*
X177206666Y-109618095D01*
X177206666Y-109522857D01*
X177254285Y-109427619D01*
X177301904Y-109380000D01*
X177397142Y-109332380D01*
X177635238Y-109332380D01*
X177778095Y-109380000D01*
X178111428Y-109332380D02*
X178349523Y-110332380D01*
X178540000Y-109618095D01*
X178730476Y-110332380D01*
X178968571Y-109332380D01*
X179873333Y-110332380D02*
X179301904Y-110332380D01*
X179587619Y-110332380D02*
X179587619Y-109332380D01*
X179492380Y-109475238D01*
X179397142Y-109570476D01*
X179301904Y-109618095D01*
%TO.C,R14*%
X192297142Y-41962380D02*
X191963809Y-41486190D01*
X191725714Y-41962380D02*
X191725714Y-40962380D01*
X192106666Y-40962380D01*
X192201904Y-41010000D01*
X192249523Y-41057619D01*
X192297142Y-41152857D01*
X192297142Y-41295714D01*
X192249523Y-41390952D01*
X192201904Y-41438571D01*
X192106666Y-41486190D01*
X191725714Y-41486190D01*
X193249523Y-41962380D02*
X192678095Y-41962380D01*
X192963809Y-41962380D02*
X192963809Y-40962380D01*
X192868571Y-41105238D01*
X192773333Y-41200476D01*
X192678095Y-41248095D01*
X194106666Y-41295714D02*
X194106666Y-41962380D01*
X193868571Y-40914761D02*
X193630476Y-41629047D01*
X194249523Y-41629047D01*
%TO.C,R13*%
X171332143Y-43357381D02*
X170998810Y-42881191D01*
X170760715Y-43357381D02*
X170760715Y-42357381D01*
X171141667Y-42357381D01*
X171236905Y-42405001D01*
X171284524Y-42452620D01*
X171332143Y-42547858D01*
X171332143Y-42690715D01*
X171284524Y-42785953D01*
X171236905Y-42833572D01*
X171141667Y-42881191D01*
X170760715Y-42881191D01*
X172284524Y-43357381D02*
X171713096Y-43357381D01*
X171998810Y-43357381D02*
X171998810Y-42357381D01*
X171903572Y-42500239D01*
X171808334Y-42595477D01*
X171713096Y-42643096D01*
X172617858Y-42357381D02*
X173236905Y-42357381D01*
X172903572Y-42738334D01*
X173046429Y-42738334D01*
X173141667Y-42785953D01*
X173189286Y-42833572D01*
X173236905Y-42928810D01*
X173236905Y-43166905D01*
X173189286Y-43262143D01*
X173141667Y-43309762D01*
X173046429Y-43357381D01*
X172760715Y-43357381D01*
X172665477Y-43309762D01*
X172617858Y-43262143D01*
%TO.C,R12*%
X129247142Y-93712380D02*
X128913809Y-93236190D01*
X128675714Y-93712380D02*
X128675714Y-92712380D01*
X129056666Y-92712380D01*
X129151904Y-92760000D01*
X129199523Y-92807619D01*
X129247142Y-92902857D01*
X129247142Y-93045714D01*
X129199523Y-93140952D01*
X129151904Y-93188571D01*
X129056666Y-93236190D01*
X128675714Y-93236190D01*
X130199523Y-93712380D02*
X129628095Y-93712380D01*
X129913809Y-93712380D02*
X129913809Y-92712380D01*
X129818571Y-92855238D01*
X129723333Y-92950476D01*
X129628095Y-92998095D01*
X130580476Y-92807619D02*
X130628095Y-92760000D01*
X130723333Y-92712380D01*
X130961428Y-92712380D01*
X131056666Y-92760000D01*
X131104285Y-92807619D01*
X131151904Y-92902857D01*
X131151904Y-92998095D01*
X131104285Y-93140952D01*
X130532857Y-93712380D01*
X131151904Y-93712380D01*
%TO.C,R11*%
X139887142Y-105712380D02*
X139553809Y-105236190D01*
X139315714Y-105712380D02*
X139315714Y-104712380D01*
X139696666Y-104712380D01*
X139791904Y-104760000D01*
X139839523Y-104807619D01*
X139887142Y-104902857D01*
X139887142Y-105045714D01*
X139839523Y-105140952D01*
X139791904Y-105188571D01*
X139696666Y-105236190D01*
X139315714Y-105236190D01*
X140839523Y-105712380D02*
X140268095Y-105712380D01*
X140553809Y-105712380D02*
X140553809Y-104712380D01*
X140458571Y-104855238D01*
X140363333Y-104950476D01*
X140268095Y-104998095D01*
X141791904Y-105712380D02*
X141220476Y-105712380D01*
X141506190Y-105712380D02*
X141506190Y-104712380D01*
X141410952Y-104855238D01*
X141315714Y-104950476D01*
X141220476Y-104998095D01*
%TO.C,R10*%
X86397142Y-87162380D02*
X86063809Y-86686190D01*
X85825714Y-87162380D02*
X85825714Y-86162380D01*
X86206666Y-86162380D01*
X86301904Y-86210000D01*
X86349523Y-86257619D01*
X86397142Y-86352857D01*
X86397142Y-86495714D01*
X86349523Y-86590952D01*
X86301904Y-86638571D01*
X86206666Y-86686190D01*
X85825714Y-86686190D01*
X87349523Y-87162380D02*
X86778095Y-87162380D01*
X87063809Y-87162380D02*
X87063809Y-86162380D01*
X86968571Y-86305238D01*
X86873333Y-86400476D01*
X86778095Y-86448095D01*
X87968571Y-86162380D02*
X88063809Y-86162380D01*
X88159047Y-86210000D01*
X88206666Y-86257619D01*
X88254285Y-86352857D01*
X88301904Y-86543333D01*
X88301904Y-86781428D01*
X88254285Y-86971904D01*
X88206666Y-87067142D01*
X88159047Y-87114761D01*
X88063809Y-87162380D01*
X87968571Y-87162380D01*
X87873333Y-87114761D01*
X87825714Y-87067142D01*
X87778095Y-86971904D01*
X87730476Y-86781428D01*
X87730476Y-86543333D01*
X87778095Y-86352857D01*
X87825714Y-86257619D01*
X87873333Y-86210000D01*
X87968571Y-86162380D01*
%TO.C,R9*%
X91573333Y-86012380D02*
X91240000Y-85536190D01*
X91001904Y-86012380D02*
X91001904Y-85012380D01*
X91382857Y-85012380D01*
X91478095Y-85060000D01*
X91525714Y-85107619D01*
X91573333Y-85202857D01*
X91573333Y-85345714D01*
X91525714Y-85440952D01*
X91478095Y-85488571D01*
X91382857Y-85536190D01*
X91001904Y-85536190D01*
X92049523Y-86012380D02*
X92240000Y-86012380D01*
X92335238Y-85964761D01*
X92382857Y-85917142D01*
X92478095Y-85774285D01*
X92525714Y-85583809D01*
X92525714Y-85202857D01*
X92478095Y-85107619D01*
X92430476Y-85060000D01*
X92335238Y-85012380D01*
X92144761Y-85012380D01*
X92049523Y-85060000D01*
X92001904Y-85107619D01*
X91954285Y-85202857D01*
X91954285Y-85440952D01*
X92001904Y-85536190D01*
X92049523Y-85583809D01*
X92144761Y-85631428D01*
X92335238Y-85631428D01*
X92430476Y-85583809D01*
X92478095Y-85536190D01*
X92525714Y-85440952D01*
%TO.C,R8*%
X95373333Y-90162380D02*
X95040000Y-89686190D01*
X94801904Y-90162380D02*
X94801904Y-89162380D01*
X95182857Y-89162380D01*
X95278095Y-89210000D01*
X95325714Y-89257619D01*
X95373333Y-89352857D01*
X95373333Y-89495714D01*
X95325714Y-89590952D01*
X95278095Y-89638571D01*
X95182857Y-89686190D01*
X94801904Y-89686190D01*
X95944761Y-89590952D02*
X95849523Y-89543333D01*
X95801904Y-89495714D01*
X95754285Y-89400476D01*
X95754285Y-89352857D01*
X95801904Y-89257619D01*
X95849523Y-89210000D01*
X95944761Y-89162380D01*
X96135238Y-89162380D01*
X96230476Y-89210000D01*
X96278095Y-89257619D01*
X96325714Y-89352857D01*
X96325714Y-89400476D01*
X96278095Y-89495714D01*
X96230476Y-89543333D01*
X96135238Y-89590952D01*
X95944761Y-89590952D01*
X95849523Y-89638571D01*
X95801904Y-89686190D01*
X95754285Y-89781428D01*
X95754285Y-89971904D01*
X95801904Y-90067142D01*
X95849523Y-90114761D01*
X95944761Y-90162380D01*
X96135238Y-90162380D01*
X96230476Y-90114761D01*
X96278095Y-90067142D01*
X96325714Y-89971904D01*
X96325714Y-89781428D01*
X96278095Y-89686190D01*
X96230476Y-89638571D01*
X96135238Y-89590952D01*
%TO.C,R7*%
X89523333Y-90912380D02*
X89190000Y-90436190D01*
X88951904Y-90912380D02*
X88951904Y-89912380D01*
X89332857Y-89912380D01*
X89428095Y-89960000D01*
X89475714Y-90007619D01*
X89523333Y-90102857D01*
X89523333Y-90245714D01*
X89475714Y-90340952D01*
X89428095Y-90388571D01*
X89332857Y-90436190D01*
X88951904Y-90436190D01*
X89856666Y-89912380D02*
X90523333Y-89912380D01*
X90094761Y-90912380D01*
%TO.C,R6*%
X179058334Y-65857381D02*
X178725001Y-65381191D01*
X178486905Y-65857381D02*
X178486905Y-64857381D01*
X178867858Y-64857381D01*
X178963096Y-64905001D01*
X179010715Y-64952620D01*
X179058334Y-65047858D01*
X179058334Y-65190715D01*
X179010715Y-65285953D01*
X178963096Y-65333572D01*
X178867858Y-65381191D01*
X178486905Y-65381191D01*
X179915477Y-64857381D02*
X179725001Y-64857381D01*
X179629762Y-64905001D01*
X179582143Y-64952620D01*
X179486905Y-65095477D01*
X179439286Y-65285953D01*
X179439286Y-65666905D01*
X179486905Y-65762143D01*
X179534524Y-65809762D01*
X179629762Y-65857381D01*
X179820239Y-65857381D01*
X179915477Y-65809762D01*
X179963096Y-65762143D01*
X180010715Y-65666905D01*
X180010715Y-65428810D01*
X179963096Y-65333572D01*
X179915477Y-65285953D01*
X179820239Y-65238334D01*
X179629762Y-65238334D01*
X179534524Y-65285953D01*
X179486905Y-65333572D01*
X179439286Y-65428810D01*
%TO.C,R5*%
X168458334Y-76047381D02*
X168125001Y-75571191D01*
X167886905Y-76047381D02*
X167886905Y-75047381D01*
X168267858Y-75047381D01*
X168363096Y-75095001D01*
X168410715Y-75142620D01*
X168458334Y-75237858D01*
X168458334Y-75380715D01*
X168410715Y-75475953D01*
X168363096Y-75523572D01*
X168267858Y-75571191D01*
X167886905Y-75571191D01*
X169363096Y-75047381D02*
X168886905Y-75047381D01*
X168839286Y-75523572D01*
X168886905Y-75475953D01*
X168982143Y-75428334D01*
X169220239Y-75428334D01*
X169315477Y-75475953D01*
X169363096Y-75523572D01*
X169410715Y-75618810D01*
X169410715Y-75856905D01*
X169363096Y-75952143D01*
X169315477Y-75999762D01*
X169220239Y-76047381D01*
X168982143Y-76047381D01*
X168886905Y-75999762D01*
X168839286Y-75952143D01*
%TO.C,R4*%
X172988334Y-71017381D02*
X172655001Y-70541191D01*
X172416905Y-71017381D02*
X172416905Y-70017381D01*
X172797858Y-70017381D01*
X172893096Y-70065001D01*
X172940715Y-70112620D01*
X172988334Y-70207858D01*
X172988334Y-70350715D01*
X172940715Y-70445953D01*
X172893096Y-70493572D01*
X172797858Y-70541191D01*
X172416905Y-70541191D01*
X173845477Y-70350715D02*
X173845477Y-71017381D01*
X173607381Y-69969762D02*
X173369286Y-70684048D01*
X173988334Y-70684048D01*
%TO.C,R3*%
X179058334Y-63867381D02*
X178725001Y-63391191D01*
X178486905Y-63867381D02*
X178486905Y-62867381D01*
X178867858Y-62867381D01*
X178963096Y-62915001D01*
X179010715Y-62962620D01*
X179058334Y-63057858D01*
X179058334Y-63200715D01*
X179010715Y-63295953D01*
X178963096Y-63343572D01*
X178867858Y-63391191D01*
X178486905Y-63391191D01*
X179391667Y-62867381D02*
X180010715Y-62867381D01*
X179677381Y-63248334D01*
X179820239Y-63248334D01*
X179915477Y-63295953D01*
X179963096Y-63343572D01*
X180010715Y-63438810D01*
X180010715Y-63676905D01*
X179963096Y-63772143D01*
X179915477Y-63819762D01*
X179820239Y-63867381D01*
X179534524Y-63867381D01*
X179439286Y-63819762D01*
X179391667Y-63772143D01*
%TO.C,R2*%
X149423333Y-63862380D02*
X149090000Y-63386190D01*
X148851904Y-63862380D02*
X148851904Y-62862380D01*
X149232857Y-62862380D01*
X149328095Y-62910000D01*
X149375714Y-62957619D01*
X149423333Y-63052857D01*
X149423333Y-63195714D01*
X149375714Y-63290952D01*
X149328095Y-63338571D01*
X149232857Y-63386190D01*
X148851904Y-63386190D01*
X149804285Y-62957619D02*
X149851904Y-62910000D01*
X149947142Y-62862380D01*
X150185238Y-62862380D01*
X150280476Y-62910000D01*
X150328095Y-62957619D01*
X150375714Y-63052857D01*
X150375714Y-63148095D01*
X150328095Y-63290952D01*
X149756666Y-63862380D01*
X150375714Y-63862380D01*
%TO.C,R1*%
X188623333Y-107112380D02*
X188290000Y-106636190D01*
X188051904Y-107112380D02*
X188051904Y-106112380D01*
X188432857Y-106112380D01*
X188528095Y-106160000D01*
X188575714Y-106207619D01*
X188623333Y-106302857D01*
X188623333Y-106445714D01*
X188575714Y-106540952D01*
X188528095Y-106588571D01*
X188432857Y-106636190D01*
X188051904Y-106636190D01*
X189575714Y-107112380D02*
X189004285Y-107112380D01*
X189290000Y-107112380D02*
X189290000Y-106112380D01*
X189194761Y-106255238D01*
X189099523Y-106350476D01*
X189004285Y-106398095D01*
%TO.C,Q2*%
X126314761Y-97017619D02*
X126219523Y-96970000D01*
X126124285Y-96874761D01*
X125981428Y-96731904D01*
X125886190Y-96684285D01*
X125790952Y-96684285D01*
X125838571Y-96922380D02*
X125743333Y-96874761D01*
X125648095Y-96779523D01*
X125600476Y-96589047D01*
X125600476Y-96255714D01*
X125648095Y-96065238D01*
X125743333Y-95970000D01*
X125838571Y-95922380D01*
X126029047Y-95922380D01*
X126124285Y-95970000D01*
X126219523Y-96065238D01*
X126267142Y-96255714D01*
X126267142Y-96589047D01*
X126219523Y-96779523D01*
X126124285Y-96874761D01*
X126029047Y-96922380D01*
X125838571Y-96922380D01*
X126648095Y-96017619D02*
X126695714Y-95970000D01*
X126790952Y-95922380D01*
X127029047Y-95922380D01*
X127124285Y-95970000D01*
X127171904Y-96017619D01*
X127219523Y-96112857D01*
X127219523Y-96208095D01*
X127171904Y-96350952D01*
X126600476Y-96922380D01*
X127219523Y-96922380D01*
%TO.C,Q1*%
X142914761Y-108167619D02*
X142819523Y-108120000D01*
X142724285Y-108024761D01*
X142581428Y-107881904D01*
X142486190Y-107834285D01*
X142390952Y-107834285D01*
X142438571Y-108072380D02*
X142343333Y-108024761D01*
X142248095Y-107929523D01*
X142200476Y-107739047D01*
X142200476Y-107405714D01*
X142248095Y-107215238D01*
X142343333Y-107120000D01*
X142438571Y-107072380D01*
X142629047Y-107072380D01*
X142724285Y-107120000D01*
X142819523Y-107215238D01*
X142867142Y-107405714D01*
X142867142Y-107739047D01*
X142819523Y-107929523D01*
X142724285Y-108024761D01*
X142629047Y-108072380D01*
X142438571Y-108072380D01*
X143819523Y-108072380D02*
X143248095Y-108072380D01*
X143533809Y-108072380D02*
X143533809Y-107072380D01*
X143438571Y-107215238D01*
X143343333Y-107310476D01*
X143248095Y-107358095D01*
%TO.C,L1*%
X135373333Y-78752380D02*
X134897142Y-78752380D01*
X134897142Y-77752380D01*
X136230476Y-78752380D02*
X135659047Y-78752380D01*
X135944761Y-78752380D02*
X135944761Y-77752380D01*
X135849523Y-77895238D01*
X135754285Y-77990476D01*
X135659047Y-78038095D01*
%TO.C,J2*%
X142856666Y-135032380D02*
X142856666Y-135746666D01*
X142809047Y-135889523D01*
X142713809Y-135984761D01*
X142570952Y-136032380D01*
X142475714Y-136032380D01*
X143285238Y-135127619D02*
X143332857Y-135080000D01*
X143428095Y-135032380D01*
X143666190Y-135032380D01*
X143761428Y-135080000D01*
X143809047Y-135127619D01*
X143856666Y-135222857D01*
X143856666Y-135318095D01*
X143809047Y-135460952D01*
X143237619Y-136032380D01*
X143856666Y-136032380D01*
%TO.C,J1*%
X181656666Y-55644880D02*
X181656666Y-56359166D01*
X181609047Y-56502023D01*
X181513809Y-56597261D01*
X181370952Y-56644880D01*
X181275714Y-56644880D01*
X182656666Y-56644880D02*
X182085238Y-56644880D01*
X182370952Y-56644880D02*
X182370952Y-55644880D01*
X182275714Y-55787738D01*
X182180476Y-55882976D01*
X182085238Y-55930595D01*
%TO.C,D4*%
X199556905Y-56412381D02*
X199556905Y-55412381D01*
X199795001Y-55412381D01*
X199937858Y-55460001D01*
X200033096Y-55555239D01*
X200080715Y-55650477D01*
X200128334Y-55840953D01*
X200128334Y-55983810D01*
X200080715Y-56174286D01*
X200033096Y-56269524D01*
X199937858Y-56364762D01*
X199795001Y-56412381D01*
X199556905Y-56412381D01*
X200985477Y-55745715D02*
X200985477Y-56412381D01*
X200747381Y-55364762D02*
X200509286Y-56079048D01*
X201128334Y-56079048D01*
%TO.C,D3*%
X188851904Y-59832380D02*
X188851904Y-58832380D01*
X189090000Y-58832380D01*
X189232857Y-58880000D01*
X189328095Y-58975238D01*
X189375714Y-59070476D01*
X189423333Y-59260952D01*
X189423333Y-59403809D01*
X189375714Y-59594285D01*
X189328095Y-59689523D01*
X189232857Y-59784761D01*
X189090000Y-59832380D01*
X188851904Y-59832380D01*
X189756666Y-58832380D02*
X190375714Y-58832380D01*
X190042380Y-59213333D01*
X190185238Y-59213333D01*
X190280476Y-59260952D01*
X190328095Y-59308571D01*
X190375714Y-59403809D01*
X190375714Y-59641904D01*
X190328095Y-59737142D01*
X190280476Y-59784761D01*
X190185238Y-59832380D01*
X189899523Y-59832380D01*
X189804285Y-59784761D01*
X189756666Y-59737142D01*
%TO.C,D2*%
X187514404Y-66932380D02*
X187514404Y-65932380D01*
X187752500Y-65932380D01*
X187895357Y-65980000D01*
X187990595Y-66075238D01*
X188038214Y-66170476D01*
X188085833Y-66360952D01*
X188085833Y-66503809D01*
X188038214Y-66694285D01*
X187990595Y-66789523D01*
X187895357Y-66884761D01*
X187752500Y-66932380D01*
X187514404Y-66932380D01*
X188466785Y-66027619D02*
X188514404Y-65980000D01*
X188609642Y-65932380D01*
X188847738Y-65932380D01*
X188942976Y-65980000D01*
X188990595Y-66027619D01*
X189038214Y-66122857D01*
X189038214Y-66218095D01*
X188990595Y-66360952D01*
X188419166Y-66932380D01*
X189038214Y-66932380D01*
%TO.C,D1*%
X195106905Y-56412381D02*
X195106905Y-55412381D01*
X195345001Y-55412381D01*
X195487858Y-55460001D01*
X195583096Y-55555239D01*
X195630715Y-55650477D01*
X195678334Y-55840953D01*
X195678334Y-55983810D01*
X195630715Y-56174286D01*
X195583096Y-56269524D01*
X195487858Y-56364762D01*
X195345001Y-56412381D01*
X195106905Y-56412381D01*
X196630715Y-56412381D02*
X196059286Y-56412381D01*
X196345001Y-56412381D02*
X196345001Y-55412381D01*
X196249762Y-55555239D01*
X196154524Y-55650477D01*
X196059286Y-55698096D01*
%TO.C,C10*%
X166617142Y-58427142D02*
X166569523Y-58474761D01*
X166426666Y-58522380D01*
X166331428Y-58522380D01*
X166188571Y-58474761D01*
X166093333Y-58379523D01*
X166045714Y-58284285D01*
X165998095Y-58093809D01*
X165998095Y-57950952D01*
X166045714Y-57760476D01*
X166093333Y-57665238D01*
X166188571Y-57570000D01*
X166331428Y-57522380D01*
X166426666Y-57522380D01*
X166569523Y-57570000D01*
X166617142Y-57617619D01*
X167569523Y-58522380D02*
X166998095Y-58522380D01*
X167283809Y-58522380D02*
X167283809Y-57522380D01*
X167188571Y-57665238D01*
X167093333Y-57760476D01*
X166998095Y-57808095D01*
X168188571Y-57522380D02*
X168283809Y-57522380D01*
X168379047Y-57570000D01*
X168426666Y-57617619D01*
X168474285Y-57712857D01*
X168521904Y-57903333D01*
X168521904Y-58141428D01*
X168474285Y-58331904D01*
X168426666Y-58427142D01*
X168379047Y-58474761D01*
X168283809Y-58522380D01*
X168188571Y-58522380D01*
X168093333Y-58474761D01*
X168045714Y-58427142D01*
X167998095Y-58331904D01*
X167950476Y-58141428D01*
X167950476Y-57903333D01*
X167998095Y-57712857D01*
X168045714Y-57617619D01*
X168093333Y-57570000D01*
X168188571Y-57522380D01*
%TO.C,C9*%
X184223333Y-92777142D02*
X184175714Y-92824761D01*
X184032857Y-92872380D01*
X183937619Y-92872380D01*
X183794761Y-92824761D01*
X183699523Y-92729523D01*
X183651904Y-92634285D01*
X183604285Y-92443809D01*
X183604285Y-92300952D01*
X183651904Y-92110476D01*
X183699523Y-92015238D01*
X183794761Y-91920000D01*
X183937619Y-91872380D01*
X184032857Y-91872380D01*
X184175714Y-91920000D01*
X184223333Y-91967619D01*
X184699523Y-92872380D02*
X184890000Y-92872380D01*
X184985238Y-92824761D01*
X185032857Y-92777142D01*
X185128095Y-92634285D01*
X185175714Y-92443809D01*
X185175714Y-92062857D01*
X185128095Y-91967619D01*
X185080476Y-91920000D01*
X184985238Y-91872380D01*
X184794761Y-91872380D01*
X184699523Y-91920000D01*
X184651904Y-91967619D01*
X184604285Y-92062857D01*
X184604285Y-92300952D01*
X184651904Y-92396190D01*
X184699523Y-92443809D01*
X184794761Y-92491428D01*
X184985238Y-92491428D01*
X185080476Y-92443809D01*
X185128095Y-92396190D01*
X185175714Y-92300952D01*
%TO.C,C8*%
X115273333Y-60357142D02*
X115225714Y-60404761D01*
X115082857Y-60452380D01*
X114987619Y-60452380D01*
X114844761Y-60404761D01*
X114749523Y-60309523D01*
X114701904Y-60214285D01*
X114654285Y-60023809D01*
X114654285Y-59880952D01*
X114701904Y-59690476D01*
X114749523Y-59595238D01*
X114844761Y-59500000D01*
X114987619Y-59452380D01*
X115082857Y-59452380D01*
X115225714Y-59500000D01*
X115273333Y-59547619D01*
X115844761Y-59880952D02*
X115749523Y-59833333D01*
X115701904Y-59785714D01*
X115654285Y-59690476D01*
X115654285Y-59642857D01*
X115701904Y-59547619D01*
X115749523Y-59500000D01*
X115844761Y-59452380D01*
X116035238Y-59452380D01*
X116130476Y-59500000D01*
X116178095Y-59547619D01*
X116225714Y-59642857D01*
X116225714Y-59690476D01*
X116178095Y-59785714D01*
X116130476Y-59833333D01*
X116035238Y-59880952D01*
X115844761Y-59880952D01*
X115749523Y-59928571D01*
X115701904Y-59976190D01*
X115654285Y-60071428D01*
X115654285Y-60261904D01*
X115701904Y-60357142D01*
X115749523Y-60404761D01*
X115844761Y-60452380D01*
X116035238Y-60452380D01*
X116130476Y-60404761D01*
X116178095Y-60357142D01*
X116225714Y-60261904D01*
X116225714Y-60071428D01*
X116178095Y-59976190D01*
X116130476Y-59928571D01*
X116035238Y-59880952D01*
%TO.C,C7*%
X131978334Y-73142143D02*
X131930715Y-73189762D01*
X131787858Y-73237381D01*
X131692620Y-73237381D01*
X131549762Y-73189762D01*
X131454524Y-73094524D01*
X131406905Y-72999286D01*
X131359286Y-72808810D01*
X131359286Y-72665953D01*
X131406905Y-72475477D01*
X131454524Y-72380239D01*
X131549762Y-72285001D01*
X131692620Y-72237381D01*
X131787858Y-72237381D01*
X131930715Y-72285001D01*
X131978334Y-72332620D01*
X132311667Y-72237381D02*
X132978334Y-72237381D01*
X132549762Y-73237381D01*
%TO.C,C6*%
X134888334Y-71342143D02*
X134840715Y-71389762D01*
X134697858Y-71437381D01*
X134602620Y-71437381D01*
X134459762Y-71389762D01*
X134364524Y-71294524D01*
X134316905Y-71199286D01*
X134269286Y-71008810D01*
X134269286Y-70865953D01*
X134316905Y-70675477D01*
X134364524Y-70580239D01*
X134459762Y-70485001D01*
X134602620Y-70437381D01*
X134697858Y-70437381D01*
X134840715Y-70485001D01*
X134888334Y-70532620D01*
X135745477Y-70437381D02*
X135555001Y-70437381D01*
X135459762Y-70485001D01*
X135412143Y-70532620D01*
X135316905Y-70675477D01*
X135269286Y-70865953D01*
X135269286Y-71246905D01*
X135316905Y-71342143D01*
X135364524Y-71389762D01*
X135459762Y-71437381D01*
X135650239Y-71437381D01*
X135745477Y-71389762D01*
X135793096Y-71342143D01*
X135840715Y-71246905D01*
X135840715Y-71008810D01*
X135793096Y-70913572D01*
X135745477Y-70865953D01*
X135650239Y-70818334D01*
X135459762Y-70818334D01*
X135364524Y-70865953D01*
X135316905Y-70913572D01*
X135269286Y-71008810D01*
%TO.C,C5*%
X184248334Y-111042143D02*
X184200715Y-111089762D01*
X184057858Y-111137381D01*
X183962620Y-111137381D01*
X183819762Y-111089762D01*
X183724524Y-110994524D01*
X183676905Y-110899286D01*
X183629286Y-110708810D01*
X183629286Y-110565953D01*
X183676905Y-110375477D01*
X183724524Y-110280239D01*
X183819762Y-110185001D01*
X183962620Y-110137381D01*
X184057858Y-110137381D01*
X184200715Y-110185001D01*
X184248334Y-110232620D01*
X185153096Y-110137381D02*
X184676905Y-110137381D01*
X184629286Y-110613572D01*
X184676905Y-110565953D01*
X184772143Y-110518334D01*
X185010239Y-110518334D01*
X185105477Y-110565953D01*
X185153096Y-110613572D01*
X185200715Y-110708810D01*
X185200715Y-110946905D01*
X185153096Y-111042143D01*
X185105477Y-111089762D01*
X185010239Y-111137381D01*
X184772143Y-111137381D01*
X184676905Y-111089762D01*
X184629286Y-111042143D01*
%TO.C,C4*%
X144623333Y-71077142D02*
X144575714Y-71124761D01*
X144432857Y-71172380D01*
X144337619Y-71172380D01*
X144194761Y-71124761D01*
X144099523Y-71029523D01*
X144051904Y-70934285D01*
X144004285Y-70743809D01*
X144004285Y-70600952D01*
X144051904Y-70410476D01*
X144099523Y-70315238D01*
X144194761Y-70220000D01*
X144337619Y-70172380D01*
X144432857Y-70172380D01*
X144575714Y-70220000D01*
X144623333Y-70267619D01*
X145480476Y-70505714D02*
X145480476Y-71172380D01*
X145242380Y-70124761D02*
X145004285Y-70839047D01*
X145623333Y-70839047D01*
%TO.C,C3*%
X140498333Y-66007142D02*
X140450714Y-66054761D01*
X140307857Y-66102380D01*
X140212619Y-66102380D01*
X140069761Y-66054761D01*
X139974523Y-65959523D01*
X139926904Y-65864285D01*
X139879285Y-65673809D01*
X139879285Y-65530952D01*
X139926904Y-65340476D01*
X139974523Y-65245238D01*
X140069761Y-65150000D01*
X140212619Y-65102380D01*
X140307857Y-65102380D01*
X140450714Y-65150000D01*
X140498333Y-65197619D01*
X140831666Y-65102380D02*
X141450714Y-65102380D01*
X141117380Y-65483333D01*
X141260238Y-65483333D01*
X141355476Y-65530952D01*
X141403095Y-65578571D01*
X141450714Y-65673809D01*
X141450714Y-65911904D01*
X141403095Y-66007142D01*
X141355476Y-66054761D01*
X141260238Y-66102380D01*
X140974523Y-66102380D01*
X140879285Y-66054761D01*
X140831666Y-66007142D01*
%TO.C,C2*%
X184248334Y-113012143D02*
X184200715Y-113059762D01*
X184057858Y-113107381D01*
X183962620Y-113107381D01*
X183819762Y-113059762D01*
X183724524Y-112964524D01*
X183676905Y-112869286D01*
X183629286Y-112678810D01*
X183629286Y-112535953D01*
X183676905Y-112345477D01*
X183724524Y-112250239D01*
X183819762Y-112155001D01*
X183962620Y-112107381D01*
X184057858Y-112107381D01*
X184200715Y-112155001D01*
X184248334Y-112202620D01*
X184629286Y-112202620D02*
X184676905Y-112155001D01*
X184772143Y-112107381D01*
X185010239Y-112107381D01*
X185105477Y-112155001D01*
X185153096Y-112202620D01*
X185200715Y-112297858D01*
X185200715Y-112393096D01*
X185153096Y-112535953D01*
X184581667Y-113107381D01*
X185200715Y-113107381D01*
%TO.C,C1*%
X117473333Y-56207142D02*
X117425714Y-56254761D01*
X117282857Y-56302380D01*
X117187619Y-56302380D01*
X117044761Y-56254761D01*
X116949523Y-56159523D01*
X116901904Y-56064285D01*
X116854285Y-55873809D01*
X116854285Y-55730952D01*
X116901904Y-55540476D01*
X116949523Y-55445238D01*
X117044761Y-55350000D01*
X117187619Y-55302380D01*
X117282857Y-55302380D01*
X117425714Y-55350000D01*
X117473333Y-55397619D01*
X118425714Y-56302380D02*
X117854285Y-56302380D01*
X118140000Y-56302380D02*
X118140000Y-55302380D01*
X118044761Y-55445238D01*
X117949523Y-55540476D01*
X117854285Y-55588095D01*
%TD*%
M02*
