%TF.GenerationSoftware,KiCad,Pcbnew,(5.1.10)-1*%
%TF.CreationDate,2021-11-14T07:07:01-06:00*%
%TF.ProjectId,SeniorDes_PCB,53656e69-6f72-4446-9573-5f5043422e6b,rev?*%
%TF.SameCoordinates,Original*%
%TF.FileFunction,Paste,Top*%
%TF.FilePolarity,Positive*%
%FSLAX46Y46*%
G04 Gerber Fmt 4.6, Leading zero omitted, Abs format (unit mm)*
G04 Created by KiCad (PCBNEW (5.1.10)-1) date 2021-11-14 07:07:01*
%MOMM*%
%LPD*%
G01*
G04 APERTURE LIST*
%ADD10C,0.100000*%
%ADD11C,0.010000*%
%ADD12R,3.149600X3.149600*%
%ADD13R,0.304800X0.609600*%
%ADD14R,0.609600X0.304800*%
%ADD15R,1.550000X1.000000*%
%ADD16R,1.500000X1.900000*%
%ADD17R,0.400000X1.350000*%
G04 APERTURE END LIST*
D10*
%TO.C,U3*%
G36*
X166290000Y-67530000D02*
G01*
X166290000Y-68904800D01*
X167664800Y-68904800D01*
X167664800Y-67530000D01*
X166290000Y-67530000D01*
G37*
X166290000Y-67530000D02*
X166290000Y-68904800D01*
X167664800Y-68904800D01*
X167664800Y-67530000D01*
X166290000Y-67530000D01*
G36*
X166290000Y-65955200D02*
G01*
X166290000Y-67330000D01*
X167664800Y-67330000D01*
X167664800Y-65955200D01*
X166290000Y-65955200D01*
G37*
X166290000Y-65955200D02*
X166290000Y-67330000D01*
X167664800Y-67330000D01*
X167664800Y-65955200D01*
X166290000Y-65955200D01*
G36*
X164715200Y-67530000D02*
G01*
X164715200Y-68904800D01*
X166090000Y-68904800D01*
X166090000Y-67530000D01*
X164715200Y-67530000D01*
G37*
X164715200Y-67530000D02*
X164715200Y-68904800D01*
X166090000Y-68904800D01*
X166090000Y-67530000D01*
X164715200Y-67530000D01*
G36*
X164715200Y-65955200D02*
G01*
X164715200Y-67330000D01*
X166090000Y-67330000D01*
X166090000Y-65955200D01*
X164715200Y-65955200D01*
G37*
X164715200Y-65955200D02*
X164715200Y-67330000D01*
X166090000Y-67330000D01*
X166090000Y-65955200D01*
X164715200Y-65955200D01*
D11*
%TO.C,U2*%
G36*
X145035000Y-82175000D02*
G01*
X146945000Y-82175000D01*
X146945000Y-84085000D01*
X145035000Y-84085000D01*
X145035000Y-82175000D01*
G37*
X145035000Y-82175000D02*
X146945000Y-82175000D01*
X146945000Y-84085000D01*
X145035000Y-84085000D01*
X145035000Y-82175000D01*
G36*
X142335000Y-82175000D02*
G01*
X144245000Y-82175000D01*
X144245000Y-84085000D01*
X142335000Y-84085000D01*
X142335000Y-82175000D01*
G37*
X142335000Y-82175000D02*
X144245000Y-82175000D01*
X144245000Y-84085000D01*
X142335000Y-84085000D01*
X142335000Y-82175000D01*
G36*
X142335000Y-79475000D02*
G01*
X144245000Y-79475000D01*
X144245000Y-81385000D01*
X142335000Y-81385000D01*
X142335000Y-79475000D01*
G37*
X142335000Y-79475000D02*
X144245000Y-79475000D01*
X144245000Y-81385000D01*
X142335000Y-81385000D01*
X142335000Y-79475000D01*
G36*
X145035000Y-79475000D02*
G01*
X146945000Y-79475000D01*
X146945000Y-81385000D01*
X145035000Y-81385000D01*
X145035000Y-79475000D01*
G37*
X145035000Y-79475000D02*
X146945000Y-79475000D01*
X146945000Y-81385000D01*
X145035000Y-81385000D01*
X145035000Y-79475000D01*
%TD*%
D12*
%TO.C,U3*%
X166190000Y-67430000D03*
D13*
X164690000Y-65131300D03*
X165189999Y-65131300D03*
X165690001Y-65131300D03*
X166190000Y-65131300D03*
X166689999Y-65131300D03*
X167190001Y-65131300D03*
X167690000Y-65131300D03*
D14*
X168488700Y-65930000D03*
X168488700Y-66429999D03*
X168488700Y-66930001D03*
X168488700Y-67430000D03*
X168488700Y-67929999D03*
X168488700Y-68430001D03*
X168488700Y-68930000D03*
D13*
X167690000Y-69728700D03*
X167190001Y-69728700D03*
X166689999Y-69728700D03*
X166190000Y-69728700D03*
X165690001Y-69728700D03*
X165189999Y-69728700D03*
X164690000Y-69728700D03*
D14*
X163891300Y-68930000D03*
X163891300Y-68430001D03*
X163891300Y-67929999D03*
X163891300Y-67430000D03*
X163891300Y-66930001D03*
X163891300Y-66429999D03*
X163891300Y-65930000D03*
%TD*%
%TO.C,U2*%
G36*
G01*
X141715000Y-78726000D02*
X141715000Y-78304000D01*
G75*
G02*
X141729000Y-78290000I14000J0D01*
G01*
X142051000Y-78290000D01*
G75*
G02*
X142065000Y-78304000I0J-14000D01*
G01*
X142065000Y-78726000D01*
G75*
G02*
X142051000Y-78740000I-14000J0D01*
G01*
X141729000Y-78740000D01*
G75*
G02*
X141715000Y-78726000I0J14000D01*
G01*
G37*
G36*
G01*
X142215000Y-78726000D02*
X142215000Y-78304000D01*
G75*
G02*
X142229000Y-78290000I14000J0D01*
G01*
X142551000Y-78290000D01*
G75*
G02*
X142565000Y-78304000I0J-14000D01*
G01*
X142565000Y-78726000D01*
G75*
G02*
X142551000Y-78740000I-14000J0D01*
G01*
X142229000Y-78740000D01*
G75*
G02*
X142215000Y-78726000I0J14000D01*
G01*
G37*
G36*
G01*
X142715000Y-78726000D02*
X142715000Y-78304000D01*
G75*
G02*
X142729000Y-78290000I14000J0D01*
G01*
X143051000Y-78290000D01*
G75*
G02*
X143065000Y-78304000I0J-14000D01*
G01*
X143065000Y-78726000D01*
G75*
G02*
X143051000Y-78740000I-14000J0D01*
G01*
X142729000Y-78740000D01*
G75*
G02*
X142715000Y-78726000I0J14000D01*
G01*
G37*
G36*
G01*
X143215000Y-78726000D02*
X143215000Y-78304000D01*
G75*
G02*
X143229000Y-78290000I14000J0D01*
G01*
X143551000Y-78290000D01*
G75*
G02*
X143565000Y-78304000I0J-14000D01*
G01*
X143565000Y-78726000D01*
G75*
G02*
X143551000Y-78740000I-14000J0D01*
G01*
X143229000Y-78740000D01*
G75*
G02*
X143215000Y-78726000I0J14000D01*
G01*
G37*
G36*
G01*
X143715000Y-78726000D02*
X143715000Y-78304000D01*
G75*
G02*
X143729000Y-78290000I14000J0D01*
G01*
X144051000Y-78290000D01*
G75*
G02*
X144065000Y-78304000I0J-14000D01*
G01*
X144065000Y-78726000D01*
G75*
G02*
X144051000Y-78740000I-14000J0D01*
G01*
X143729000Y-78740000D01*
G75*
G02*
X143715000Y-78726000I0J14000D01*
G01*
G37*
G36*
G01*
X144215000Y-78726000D02*
X144215000Y-78304000D01*
G75*
G02*
X144229000Y-78290000I14000J0D01*
G01*
X144551000Y-78290000D01*
G75*
G02*
X144565000Y-78304000I0J-14000D01*
G01*
X144565000Y-78726000D01*
G75*
G02*
X144551000Y-78740000I-14000J0D01*
G01*
X144229000Y-78740000D01*
G75*
G02*
X144215000Y-78726000I0J14000D01*
G01*
G37*
G36*
G01*
X144715000Y-78726000D02*
X144715000Y-78304000D01*
G75*
G02*
X144729000Y-78290000I14000J0D01*
G01*
X145051000Y-78290000D01*
G75*
G02*
X145065000Y-78304000I0J-14000D01*
G01*
X145065000Y-78726000D01*
G75*
G02*
X145051000Y-78740000I-14000J0D01*
G01*
X144729000Y-78740000D01*
G75*
G02*
X144715000Y-78726000I0J14000D01*
G01*
G37*
G36*
G01*
X145215000Y-78726000D02*
X145215000Y-78304000D01*
G75*
G02*
X145229000Y-78290000I14000J0D01*
G01*
X145551000Y-78290000D01*
G75*
G02*
X145565000Y-78304000I0J-14000D01*
G01*
X145565000Y-78726000D01*
G75*
G02*
X145551000Y-78740000I-14000J0D01*
G01*
X145229000Y-78740000D01*
G75*
G02*
X145215000Y-78726000I0J14000D01*
G01*
G37*
G36*
G01*
X145715000Y-78726000D02*
X145715000Y-78304000D01*
G75*
G02*
X145729000Y-78290000I14000J0D01*
G01*
X146051000Y-78290000D01*
G75*
G02*
X146065000Y-78304000I0J-14000D01*
G01*
X146065000Y-78726000D01*
G75*
G02*
X146051000Y-78740000I-14000J0D01*
G01*
X145729000Y-78740000D01*
G75*
G02*
X145715000Y-78726000I0J14000D01*
G01*
G37*
G36*
G01*
X146215000Y-78726000D02*
X146215000Y-78304000D01*
G75*
G02*
X146229000Y-78290000I14000J0D01*
G01*
X146551000Y-78290000D01*
G75*
G02*
X146565000Y-78304000I0J-14000D01*
G01*
X146565000Y-78726000D01*
G75*
G02*
X146551000Y-78740000I-14000J0D01*
G01*
X146229000Y-78740000D01*
G75*
G02*
X146215000Y-78726000I0J14000D01*
G01*
G37*
G36*
G01*
X146715000Y-78726000D02*
X146715000Y-78304000D01*
G75*
G02*
X146729000Y-78290000I14000J0D01*
G01*
X147051000Y-78290000D01*
G75*
G02*
X147065000Y-78304000I0J-14000D01*
G01*
X147065000Y-78726000D01*
G75*
G02*
X147051000Y-78740000I-14000J0D01*
G01*
X146729000Y-78740000D01*
G75*
G02*
X146715000Y-78726000I0J14000D01*
G01*
G37*
G36*
G01*
X147215000Y-78726000D02*
X147215000Y-78304000D01*
G75*
G02*
X147229000Y-78290000I14000J0D01*
G01*
X147551000Y-78290000D01*
G75*
G02*
X147565000Y-78304000I0J-14000D01*
G01*
X147565000Y-78726000D01*
G75*
G02*
X147551000Y-78740000I-14000J0D01*
G01*
X147229000Y-78740000D01*
G75*
G02*
X147215000Y-78726000I0J14000D01*
G01*
G37*
G36*
G01*
X147680000Y-79191000D02*
X147680000Y-78869000D01*
G75*
G02*
X147694000Y-78855000I14000J0D01*
G01*
X148116000Y-78855000D01*
G75*
G02*
X148130000Y-78869000I0J-14000D01*
G01*
X148130000Y-79191000D01*
G75*
G02*
X148116000Y-79205000I-14000J0D01*
G01*
X147694000Y-79205000D01*
G75*
G02*
X147680000Y-79191000I0J14000D01*
G01*
G37*
G36*
G01*
X147680000Y-79691000D02*
X147680000Y-79369000D01*
G75*
G02*
X147694000Y-79355000I14000J0D01*
G01*
X148116000Y-79355000D01*
G75*
G02*
X148130000Y-79369000I0J-14000D01*
G01*
X148130000Y-79691000D01*
G75*
G02*
X148116000Y-79705000I-14000J0D01*
G01*
X147694000Y-79705000D01*
G75*
G02*
X147680000Y-79691000I0J14000D01*
G01*
G37*
G36*
G01*
X147680000Y-80191000D02*
X147680000Y-79869000D01*
G75*
G02*
X147694000Y-79855000I14000J0D01*
G01*
X148116000Y-79855000D01*
G75*
G02*
X148130000Y-79869000I0J-14000D01*
G01*
X148130000Y-80191000D01*
G75*
G02*
X148116000Y-80205000I-14000J0D01*
G01*
X147694000Y-80205000D01*
G75*
G02*
X147680000Y-80191000I0J14000D01*
G01*
G37*
G36*
G01*
X147680000Y-80691000D02*
X147680000Y-80369000D01*
G75*
G02*
X147694000Y-80355000I14000J0D01*
G01*
X148116000Y-80355000D01*
G75*
G02*
X148130000Y-80369000I0J-14000D01*
G01*
X148130000Y-80691000D01*
G75*
G02*
X148116000Y-80705000I-14000J0D01*
G01*
X147694000Y-80705000D01*
G75*
G02*
X147680000Y-80691000I0J14000D01*
G01*
G37*
G36*
G01*
X147680000Y-81191000D02*
X147680000Y-80869000D01*
G75*
G02*
X147694000Y-80855000I14000J0D01*
G01*
X148116000Y-80855000D01*
G75*
G02*
X148130000Y-80869000I0J-14000D01*
G01*
X148130000Y-81191000D01*
G75*
G02*
X148116000Y-81205000I-14000J0D01*
G01*
X147694000Y-81205000D01*
G75*
G02*
X147680000Y-81191000I0J14000D01*
G01*
G37*
G36*
G01*
X147680000Y-81691000D02*
X147680000Y-81369000D01*
G75*
G02*
X147694000Y-81355000I14000J0D01*
G01*
X148116000Y-81355000D01*
G75*
G02*
X148130000Y-81369000I0J-14000D01*
G01*
X148130000Y-81691000D01*
G75*
G02*
X148116000Y-81705000I-14000J0D01*
G01*
X147694000Y-81705000D01*
G75*
G02*
X147680000Y-81691000I0J14000D01*
G01*
G37*
G36*
G01*
X147680000Y-82191000D02*
X147680000Y-81869000D01*
G75*
G02*
X147694000Y-81855000I14000J0D01*
G01*
X148116000Y-81855000D01*
G75*
G02*
X148130000Y-81869000I0J-14000D01*
G01*
X148130000Y-82191000D01*
G75*
G02*
X148116000Y-82205000I-14000J0D01*
G01*
X147694000Y-82205000D01*
G75*
G02*
X147680000Y-82191000I0J14000D01*
G01*
G37*
G36*
G01*
X147680000Y-82691000D02*
X147680000Y-82369000D01*
G75*
G02*
X147694000Y-82355000I14000J0D01*
G01*
X148116000Y-82355000D01*
G75*
G02*
X148130000Y-82369000I0J-14000D01*
G01*
X148130000Y-82691000D01*
G75*
G02*
X148116000Y-82705000I-14000J0D01*
G01*
X147694000Y-82705000D01*
G75*
G02*
X147680000Y-82691000I0J14000D01*
G01*
G37*
G36*
G01*
X147680000Y-83191000D02*
X147680000Y-82869000D01*
G75*
G02*
X147694000Y-82855000I14000J0D01*
G01*
X148116000Y-82855000D01*
G75*
G02*
X148130000Y-82869000I0J-14000D01*
G01*
X148130000Y-83191000D01*
G75*
G02*
X148116000Y-83205000I-14000J0D01*
G01*
X147694000Y-83205000D01*
G75*
G02*
X147680000Y-83191000I0J14000D01*
G01*
G37*
G36*
G01*
X147680000Y-83691000D02*
X147680000Y-83369000D01*
G75*
G02*
X147694000Y-83355000I14000J0D01*
G01*
X148116000Y-83355000D01*
G75*
G02*
X148130000Y-83369000I0J-14000D01*
G01*
X148130000Y-83691000D01*
G75*
G02*
X148116000Y-83705000I-14000J0D01*
G01*
X147694000Y-83705000D01*
G75*
G02*
X147680000Y-83691000I0J14000D01*
G01*
G37*
G36*
G01*
X147680000Y-84191000D02*
X147680000Y-83869000D01*
G75*
G02*
X147694000Y-83855000I14000J0D01*
G01*
X148116000Y-83855000D01*
G75*
G02*
X148130000Y-83869000I0J-14000D01*
G01*
X148130000Y-84191000D01*
G75*
G02*
X148116000Y-84205000I-14000J0D01*
G01*
X147694000Y-84205000D01*
G75*
G02*
X147680000Y-84191000I0J14000D01*
G01*
G37*
G36*
G01*
X147680000Y-84691000D02*
X147680000Y-84369000D01*
G75*
G02*
X147694000Y-84355000I14000J0D01*
G01*
X148116000Y-84355000D01*
G75*
G02*
X148130000Y-84369000I0J-14000D01*
G01*
X148130000Y-84691000D01*
G75*
G02*
X148116000Y-84705000I-14000J0D01*
G01*
X147694000Y-84705000D01*
G75*
G02*
X147680000Y-84691000I0J14000D01*
G01*
G37*
G36*
G01*
X147215000Y-85256000D02*
X147215000Y-84834000D01*
G75*
G02*
X147229000Y-84820000I14000J0D01*
G01*
X147551000Y-84820000D01*
G75*
G02*
X147565000Y-84834000I0J-14000D01*
G01*
X147565000Y-85256000D01*
G75*
G02*
X147551000Y-85270000I-14000J0D01*
G01*
X147229000Y-85270000D01*
G75*
G02*
X147215000Y-85256000I0J14000D01*
G01*
G37*
G36*
G01*
X146715000Y-85256000D02*
X146715000Y-84834000D01*
G75*
G02*
X146729000Y-84820000I14000J0D01*
G01*
X147051000Y-84820000D01*
G75*
G02*
X147065000Y-84834000I0J-14000D01*
G01*
X147065000Y-85256000D01*
G75*
G02*
X147051000Y-85270000I-14000J0D01*
G01*
X146729000Y-85270000D01*
G75*
G02*
X146715000Y-85256000I0J14000D01*
G01*
G37*
G36*
G01*
X146215000Y-85256000D02*
X146215000Y-84834000D01*
G75*
G02*
X146229000Y-84820000I14000J0D01*
G01*
X146551000Y-84820000D01*
G75*
G02*
X146565000Y-84834000I0J-14000D01*
G01*
X146565000Y-85256000D01*
G75*
G02*
X146551000Y-85270000I-14000J0D01*
G01*
X146229000Y-85270000D01*
G75*
G02*
X146215000Y-85256000I0J14000D01*
G01*
G37*
G36*
G01*
X145715000Y-85256000D02*
X145715000Y-84834000D01*
G75*
G02*
X145729000Y-84820000I14000J0D01*
G01*
X146051000Y-84820000D01*
G75*
G02*
X146065000Y-84834000I0J-14000D01*
G01*
X146065000Y-85256000D01*
G75*
G02*
X146051000Y-85270000I-14000J0D01*
G01*
X145729000Y-85270000D01*
G75*
G02*
X145715000Y-85256000I0J14000D01*
G01*
G37*
G36*
G01*
X145215000Y-85256000D02*
X145215000Y-84834000D01*
G75*
G02*
X145229000Y-84820000I14000J0D01*
G01*
X145551000Y-84820000D01*
G75*
G02*
X145565000Y-84834000I0J-14000D01*
G01*
X145565000Y-85256000D01*
G75*
G02*
X145551000Y-85270000I-14000J0D01*
G01*
X145229000Y-85270000D01*
G75*
G02*
X145215000Y-85256000I0J14000D01*
G01*
G37*
G36*
G01*
X144715000Y-85256000D02*
X144715000Y-84834000D01*
G75*
G02*
X144729000Y-84820000I14000J0D01*
G01*
X145051000Y-84820000D01*
G75*
G02*
X145065000Y-84834000I0J-14000D01*
G01*
X145065000Y-85256000D01*
G75*
G02*
X145051000Y-85270000I-14000J0D01*
G01*
X144729000Y-85270000D01*
G75*
G02*
X144715000Y-85256000I0J14000D01*
G01*
G37*
G36*
G01*
X144215000Y-85256000D02*
X144215000Y-84834000D01*
G75*
G02*
X144229000Y-84820000I14000J0D01*
G01*
X144551000Y-84820000D01*
G75*
G02*
X144565000Y-84834000I0J-14000D01*
G01*
X144565000Y-85256000D01*
G75*
G02*
X144551000Y-85270000I-14000J0D01*
G01*
X144229000Y-85270000D01*
G75*
G02*
X144215000Y-85256000I0J14000D01*
G01*
G37*
G36*
G01*
X143715000Y-85256000D02*
X143715000Y-84834000D01*
G75*
G02*
X143729000Y-84820000I14000J0D01*
G01*
X144051000Y-84820000D01*
G75*
G02*
X144065000Y-84834000I0J-14000D01*
G01*
X144065000Y-85256000D01*
G75*
G02*
X144051000Y-85270000I-14000J0D01*
G01*
X143729000Y-85270000D01*
G75*
G02*
X143715000Y-85256000I0J14000D01*
G01*
G37*
G36*
G01*
X143215000Y-85256000D02*
X143215000Y-84834000D01*
G75*
G02*
X143229000Y-84820000I14000J0D01*
G01*
X143551000Y-84820000D01*
G75*
G02*
X143565000Y-84834000I0J-14000D01*
G01*
X143565000Y-85256000D01*
G75*
G02*
X143551000Y-85270000I-14000J0D01*
G01*
X143229000Y-85270000D01*
G75*
G02*
X143215000Y-85256000I0J14000D01*
G01*
G37*
G36*
G01*
X142715000Y-85256000D02*
X142715000Y-84834000D01*
G75*
G02*
X142729000Y-84820000I14000J0D01*
G01*
X143051000Y-84820000D01*
G75*
G02*
X143065000Y-84834000I0J-14000D01*
G01*
X143065000Y-85256000D01*
G75*
G02*
X143051000Y-85270000I-14000J0D01*
G01*
X142729000Y-85270000D01*
G75*
G02*
X142715000Y-85256000I0J14000D01*
G01*
G37*
G36*
G01*
X142215000Y-85256000D02*
X142215000Y-84834000D01*
G75*
G02*
X142229000Y-84820000I14000J0D01*
G01*
X142551000Y-84820000D01*
G75*
G02*
X142565000Y-84834000I0J-14000D01*
G01*
X142565000Y-85256000D01*
G75*
G02*
X142551000Y-85270000I-14000J0D01*
G01*
X142229000Y-85270000D01*
G75*
G02*
X142215000Y-85256000I0J14000D01*
G01*
G37*
G36*
G01*
X141715000Y-85256000D02*
X141715000Y-84834000D01*
G75*
G02*
X141729000Y-84820000I14000J0D01*
G01*
X142051000Y-84820000D01*
G75*
G02*
X142065000Y-84834000I0J-14000D01*
G01*
X142065000Y-85256000D01*
G75*
G02*
X142051000Y-85270000I-14000J0D01*
G01*
X141729000Y-85270000D01*
G75*
G02*
X141715000Y-85256000I0J14000D01*
G01*
G37*
G36*
G01*
X141150000Y-84691000D02*
X141150000Y-84369000D01*
G75*
G02*
X141164000Y-84355000I14000J0D01*
G01*
X141586000Y-84355000D01*
G75*
G02*
X141600000Y-84369000I0J-14000D01*
G01*
X141600000Y-84691000D01*
G75*
G02*
X141586000Y-84705000I-14000J0D01*
G01*
X141164000Y-84705000D01*
G75*
G02*
X141150000Y-84691000I0J14000D01*
G01*
G37*
G36*
G01*
X141150000Y-84191000D02*
X141150000Y-83869000D01*
G75*
G02*
X141164000Y-83855000I14000J0D01*
G01*
X141586000Y-83855000D01*
G75*
G02*
X141600000Y-83869000I0J-14000D01*
G01*
X141600000Y-84191000D01*
G75*
G02*
X141586000Y-84205000I-14000J0D01*
G01*
X141164000Y-84205000D01*
G75*
G02*
X141150000Y-84191000I0J14000D01*
G01*
G37*
G36*
G01*
X141150000Y-83691000D02*
X141150000Y-83369000D01*
G75*
G02*
X141164000Y-83355000I14000J0D01*
G01*
X141586000Y-83355000D01*
G75*
G02*
X141600000Y-83369000I0J-14000D01*
G01*
X141600000Y-83691000D01*
G75*
G02*
X141586000Y-83705000I-14000J0D01*
G01*
X141164000Y-83705000D01*
G75*
G02*
X141150000Y-83691000I0J14000D01*
G01*
G37*
G36*
G01*
X141150000Y-83191000D02*
X141150000Y-82869000D01*
G75*
G02*
X141164000Y-82855000I14000J0D01*
G01*
X141586000Y-82855000D01*
G75*
G02*
X141600000Y-82869000I0J-14000D01*
G01*
X141600000Y-83191000D01*
G75*
G02*
X141586000Y-83205000I-14000J0D01*
G01*
X141164000Y-83205000D01*
G75*
G02*
X141150000Y-83191000I0J14000D01*
G01*
G37*
G36*
G01*
X141150000Y-82691000D02*
X141150000Y-82369000D01*
G75*
G02*
X141164000Y-82355000I14000J0D01*
G01*
X141586000Y-82355000D01*
G75*
G02*
X141600000Y-82369000I0J-14000D01*
G01*
X141600000Y-82691000D01*
G75*
G02*
X141586000Y-82705000I-14000J0D01*
G01*
X141164000Y-82705000D01*
G75*
G02*
X141150000Y-82691000I0J14000D01*
G01*
G37*
G36*
G01*
X141150000Y-82191000D02*
X141150000Y-81869000D01*
G75*
G02*
X141164000Y-81855000I14000J0D01*
G01*
X141586000Y-81855000D01*
G75*
G02*
X141600000Y-81869000I0J-14000D01*
G01*
X141600000Y-82191000D01*
G75*
G02*
X141586000Y-82205000I-14000J0D01*
G01*
X141164000Y-82205000D01*
G75*
G02*
X141150000Y-82191000I0J14000D01*
G01*
G37*
G36*
G01*
X141150000Y-81691000D02*
X141150000Y-81369000D01*
G75*
G02*
X141164000Y-81355000I14000J0D01*
G01*
X141586000Y-81355000D01*
G75*
G02*
X141600000Y-81369000I0J-14000D01*
G01*
X141600000Y-81691000D01*
G75*
G02*
X141586000Y-81705000I-14000J0D01*
G01*
X141164000Y-81705000D01*
G75*
G02*
X141150000Y-81691000I0J14000D01*
G01*
G37*
G36*
G01*
X141150000Y-81191000D02*
X141150000Y-80869000D01*
G75*
G02*
X141164000Y-80855000I14000J0D01*
G01*
X141586000Y-80855000D01*
G75*
G02*
X141600000Y-80869000I0J-14000D01*
G01*
X141600000Y-81191000D01*
G75*
G02*
X141586000Y-81205000I-14000J0D01*
G01*
X141164000Y-81205000D01*
G75*
G02*
X141150000Y-81191000I0J14000D01*
G01*
G37*
G36*
G01*
X141150000Y-80691000D02*
X141150000Y-80369000D01*
G75*
G02*
X141164000Y-80355000I14000J0D01*
G01*
X141586000Y-80355000D01*
G75*
G02*
X141600000Y-80369000I0J-14000D01*
G01*
X141600000Y-80691000D01*
G75*
G02*
X141586000Y-80705000I-14000J0D01*
G01*
X141164000Y-80705000D01*
G75*
G02*
X141150000Y-80691000I0J14000D01*
G01*
G37*
G36*
G01*
X141150000Y-80191000D02*
X141150000Y-79869000D01*
G75*
G02*
X141164000Y-79855000I14000J0D01*
G01*
X141586000Y-79855000D01*
G75*
G02*
X141600000Y-79869000I0J-14000D01*
G01*
X141600000Y-80191000D01*
G75*
G02*
X141586000Y-80205000I-14000J0D01*
G01*
X141164000Y-80205000D01*
G75*
G02*
X141150000Y-80191000I0J14000D01*
G01*
G37*
G36*
G01*
X141150000Y-79691000D02*
X141150000Y-79369000D01*
G75*
G02*
X141164000Y-79355000I14000J0D01*
G01*
X141586000Y-79355000D01*
G75*
G02*
X141600000Y-79369000I0J-14000D01*
G01*
X141600000Y-79691000D01*
G75*
G02*
X141586000Y-79705000I-14000J0D01*
G01*
X141164000Y-79705000D01*
G75*
G02*
X141150000Y-79691000I0J14000D01*
G01*
G37*
G36*
G01*
X141150000Y-79191000D02*
X141150000Y-78869000D01*
G75*
G02*
X141164000Y-78855000I14000J0D01*
G01*
X141586000Y-78855000D01*
G75*
G02*
X141600000Y-78869000I0J-14000D01*
G01*
X141600000Y-79191000D01*
G75*
G02*
X141586000Y-79205000I-14000J0D01*
G01*
X141164000Y-79205000D01*
G75*
G02*
X141150000Y-79191000I0J14000D01*
G01*
G37*
%TD*%
%TO.C,U1*%
G36*
G01*
X122642900Y-65585000D02*
X123337100Y-65585000D01*
G75*
G02*
X123435000Y-65682900I0J-97900D01*
G01*
X123435000Y-67297100D01*
G75*
G02*
X123337100Y-67395000I-97900J0D01*
G01*
X122642900Y-67395000D01*
G75*
G02*
X122545000Y-67297100I0J97900D01*
G01*
X122545000Y-65682900D01*
G75*
G02*
X122642900Y-65585000I97900J0D01*
G01*
G37*
G36*
G01*
X120342900Y-59565000D02*
X121037100Y-59565000D01*
G75*
G02*
X121135000Y-59662900I0J-97900D01*
G01*
X121135000Y-61277100D01*
G75*
G02*
X121037100Y-61375000I-97900J0D01*
G01*
X120342900Y-61375000D01*
G75*
G02*
X120245000Y-61277100I0J97900D01*
G01*
X120245000Y-59662900D01*
G75*
G02*
X120342900Y-59565000I97900J0D01*
G01*
G37*
G36*
G01*
X122642900Y-59565000D02*
X123337100Y-59565000D01*
G75*
G02*
X123435000Y-59662900I0J-97900D01*
G01*
X123435000Y-61277100D01*
G75*
G02*
X123337100Y-61375000I-97900J0D01*
G01*
X122642900Y-61375000D01*
G75*
G02*
X122545000Y-61277100I0J97900D01*
G01*
X122545000Y-59662900D01*
G75*
G02*
X122642900Y-59565000I97900J0D01*
G01*
G37*
G36*
G01*
X124942900Y-59565000D02*
X125637100Y-59565000D01*
G75*
G02*
X125735000Y-59662900I0J-97900D01*
G01*
X125735000Y-61277100D01*
G75*
G02*
X125637100Y-61375000I-97900J0D01*
G01*
X124942900Y-61375000D01*
G75*
G02*
X124845000Y-61277100I0J97900D01*
G01*
X124845000Y-59662900D01*
G75*
G02*
X124942900Y-59565000I97900J0D01*
G01*
G37*
%TD*%
D15*
%TO.C,SW2*%
X180965000Y-100580000D03*
X175715000Y-100580000D03*
X175715000Y-102280000D03*
X180965000Y-102280000D03*
%TD*%
%TO.C,SW1*%
X181165000Y-113530000D03*
X175915000Y-113530000D03*
X175915000Y-115230000D03*
X181165000Y-115230000D03*
%TD*%
%TO.C,R14*%
G36*
G01*
X193180000Y-42865000D02*
X193180000Y-42495000D01*
G75*
G02*
X193315000Y-42360000I135000J0D01*
G01*
X193585000Y-42360000D01*
G75*
G02*
X193720000Y-42495000I0J-135000D01*
G01*
X193720000Y-42865000D01*
G75*
G02*
X193585000Y-43000000I-135000J0D01*
G01*
X193315000Y-43000000D01*
G75*
G02*
X193180000Y-42865000I0J135000D01*
G01*
G37*
G36*
G01*
X192160000Y-42865000D02*
X192160000Y-42495000D01*
G75*
G02*
X192295000Y-42360000I135000J0D01*
G01*
X192565000Y-42360000D01*
G75*
G02*
X192700000Y-42495000I0J-135000D01*
G01*
X192700000Y-42865000D01*
G75*
G02*
X192565000Y-43000000I-135000J0D01*
G01*
X192295000Y-43000000D01*
G75*
G02*
X192160000Y-42865000I0J135000D01*
G01*
G37*
%TD*%
%TO.C,R13*%
G36*
G01*
X172215001Y-44260001D02*
X172215001Y-43890001D01*
G75*
G02*
X172350001Y-43755001I135000J0D01*
G01*
X172620001Y-43755001D01*
G75*
G02*
X172755001Y-43890001I0J-135000D01*
G01*
X172755001Y-44260001D01*
G75*
G02*
X172620001Y-44395001I-135000J0D01*
G01*
X172350001Y-44395001D01*
G75*
G02*
X172215001Y-44260001I0J135000D01*
G01*
G37*
G36*
G01*
X171195001Y-44260001D02*
X171195001Y-43890001D01*
G75*
G02*
X171330001Y-43755001I135000J0D01*
G01*
X171600001Y-43755001D01*
G75*
G02*
X171735001Y-43890001I0J-135000D01*
G01*
X171735001Y-44260001D01*
G75*
G02*
X171600001Y-44395001I-135000J0D01*
G01*
X171330001Y-44395001D01*
G75*
G02*
X171195001Y-44260001I0J135000D01*
G01*
G37*
%TD*%
%TO.C,R12*%
G36*
G01*
X130130000Y-94615000D02*
X130130000Y-94245000D01*
G75*
G02*
X130265000Y-94110000I135000J0D01*
G01*
X130535000Y-94110000D01*
G75*
G02*
X130670000Y-94245000I0J-135000D01*
G01*
X130670000Y-94615000D01*
G75*
G02*
X130535000Y-94750000I-135000J0D01*
G01*
X130265000Y-94750000D01*
G75*
G02*
X130130000Y-94615000I0J135000D01*
G01*
G37*
G36*
G01*
X129110000Y-94615000D02*
X129110000Y-94245000D01*
G75*
G02*
X129245000Y-94110000I135000J0D01*
G01*
X129515000Y-94110000D01*
G75*
G02*
X129650000Y-94245000I0J-135000D01*
G01*
X129650000Y-94615000D01*
G75*
G02*
X129515000Y-94750000I-135000J0D01*
G01*
X129245000Y-94750000D01*
G75*
G02*
X129110000Y-94615000I0J135000D01*
G01*
G37*
%TD*%
%TO.C,R11*%
G36*
G01*
X140770000Y-106615000D02*
X140770000Y-106245000D01*
G75*
G02*
X140905000Y-106110000I135000J0D01*
G01*
X141175000Y-106110000D01*
G75*
G02*
X141310000Y-106245000I0J-135000D01*
G01*
X141310000Y-106615000D01*
G75*
G02*
X141175000Y-106750000I-135000J0D01*
G01*
X140905000Y-106750000D01*
G75*
G02*
X140770000Y-106615000I0J135000D01*
G01*
G37*
G36*
G01*
X139750000Y-106615000D02*
X139750000Y-106245000D01*
G75*
G02*
X139885000Y-106110000I135000J0D01*
G01*
X140155000Y-106110000D01*
G75*
G02*
X140290000Y-106245000I0J-135000D01*
G01*
X140290000Y-106615000D01*
G75*
G02*
X140155000Y-106750000I-135000J0D01*
G01*
X139885000Y-106750000D01*
G75*
G02*
X139750000Y-106615000I0J135000D01*
G01*
G37*
%TD*%
%TO.C,R10*%
G36*
G01*
X87280000Y-88065000D02*
X87280000Y-87695000D01*
G75*
G02*
X87415000Y-87560000I135000J0D01*
G01*
X87685000Y-87560000D01*
G75*
G02*
X87820000Y-87695000I0J-135000D01*
G01*
X87820000Y-88065000D01*
G75*
G02*
X87685000Y-88200000I-135000J0D01*
G01*
X87415000Y-88200000D01*
G75*
G02*
X87280000Y-88065000I0J135000D01*
G01*
G37*
G36*
G01*
X86260000Y-88065000D02*
X86260000Y-87695000D01*
G75*
G02*
X86395000Y-87560000I135000J0D01*
G01*
X86665000Y-87560000D01*
G75*
G02*
X86800000Y-87695000I0J-135000D01*
G01*
X86800000Y-88065000D01*
G75*
G02*
X86665000Y-88200000I-135000J0D01*
G01*
X86395000Y-88200000D01*
G75*
G02*
X86260000Y-88065000I0J135000D01*
G01*
G37*
%TD*%
%TO.C,R9*%
G36*
G01*
X91980000Y-86915000D02*
X91980000Y-86545000D01*
G75*
G02*
X92115000Y-86410000I135000J0D01*
G01*
X92385000Y-86410000D01*
G75*
G02*
X92520000Y-86545000I0J-135000D01*
G01*
X92520000Y-86915000D01*
G75*
G02*
X92385000Y-87050000I-135000J0D01*
G01*
X92115000Y-87050000D01*
G75*
G02*
X91980000Y-86915000I0J135000D01*
G01*
G37*
G36*
G01*
X90960000Y-86915000D02*
X90960000Y-86545000D01*
G75*
G02*
X91095000Y-86410000I135000J0D01*
G01*
X91365000Y-86410000D01*
G75*
G02*
X91500000Y-86545000I0J-135000D01*
G01*
X91500000Y-86915000D01*
G75*
G02*
X91365000Y-87050000I-135000J0D01*
G01*
X91095000Y-87050000D01*
G75*
G02*
X90960000Y-86915000I0J135000D01*
G01*
G37*
%TD*%
%TO.C,R8*%
G36*
G01*
X95780000Y-91065000D02*
X95780000Y-90695000D01*
G75*
G02*
X95915000Y-90560000I135000J0D01*
G01*
X96185000Y-90560000D01*
G75*
G02*
X96320000Y-90695000I0J-135000D01*
G01*
X96320000Y-91065000D01*
G75*
G02*
X96185000Y-91200000I-135000J0D01*
G01*
X95915000Y-91200000D01*
G75*
G02*
X95780000Y-91065000I0J135000D01*
G01*
G37*
G36*
G01*
X94760000Y-91065000D02*
X94760000Y-90695000D01*
G75*
G02*
X94895000Y-90560000I135000J0D01*
G01*
X95165000Y-90560000D01*
G75*
G02*
X95300000Y-90695000I0J-135000D01*
G01*
X95300000Y-91065000D01*
G75*
G02*
X95165000Y-91200000I-135000J0D01*
G01*
X94895000Y-91200000D01*
G75*
G02*
X94760000Y-91065000I0J135000D01*
G01*
G37*
%TD*%
%TO.C,R7*%
G36*
G01*
X89930000Y-91815000D02*
X89930000Y-91445000D01*
G75*
G02*
X90065000Y-91310000I135000J0D01*
G01*
X90335000Y-91310000D01*
G75*
G02*
X90470000Y-91445000I0J-135000D01*
G01*
X90470000Y-91815000D01*
G75*
G02*
X90335000Y-91950000I-135000J0D01*
G01*
X90065000Y-91950000D01*
G75*
G02*
X89930000Y-91815000I0J135000D01*
G01*
G37*
G36*
G01*
X88910000Y-91815000D02*
X88910000Y-91445000D01*
G75*
G02*
X89045000Y-91310000I135000J0D01*
G01*
X89315000Y-91310000D01*
G75*
G02*
X89450000Y-91445000I0J-135000D01*
G01*
X89450000Y-91815000D01*
G75*
G02*
X89315000Y-91950000I-135000J0D01*
G01*
X89045000Y-91950000D01*
G75*
G02*
X88910000Y-91815000I0J135000D01*
G01*
G37*
%TD*%
%TO.C,R6*%
G36*
G01*
X179465001Y-66760001D02*
X179465001Y-66390001D01*
G75*
G02*
X179600001Y-66255001I135000J0D01*
G01*
X179870001Y-66255001D01*
G75*
G02*
X180005001Y-66390001I0J-135000D01*
G01*
X180005001Y-66760001D01*
G75*
G02*
X179870001Y-66895001I-135000J0D01*
G01*
X179600001Y-66895001D01*
G75*
G02*
X179465001Y-66760001I0J135000D01*
G01*
G37*
G36*
G01*
X178445001Y-66760001D02*
X178445001Y-66390001D01*
G75*
G02*
X178580001Y-66255001I135000J0D01*
G01*
X178850001Y-66255001D01*
G75*
G02*
X178985001Y-66390001I0J-135000D01*
G01*
X178985001Y-66760001D01*
G75*
G02*
X178850001Y-66895001I-135000J0D01*
G01*
X178580001Y-66895001D01*
G75*
G02*
X178445001Y-66760001I0J135000D01*
G01*
G37*
%TD*%
%TO.C,R5*%
G36*
G01*
X168865001Y-76950001D02*
X168865001Y-76580001D01*
G75*
G02*
X169000001Y-76445001I135000J0D01*
G01*
X169270001Y-76445001D01*
G75*
G02*
X169405001Y-76580001I0J-135000D01*
G01*
X169405001Y-76950001D01*
G75*
G02*
X169270001Y-77085001I-135000J0D01*
G01*
X169000001Y-77085001D01*
G75*
G02*
X168865001Y-76950001I0J135000D01*
G01*
G37*
G36*
G01*
X167845001Y-76950001D02*
X167845001Y-76580001D01*
G75*
G02*
X167980001Y-76445001I135000J0D01*
G01*
X168250001Y-76445001D01*
G75*
G02*
X168385001Y-76580001I0J-135000D01*
G01*
X168385001Y-76950001D01*
G75*
G02*
X168250001Y-77085001I-135000J0D01*
G01*
X167980001Y-77085001D01*
G75*
G02*
X167845001Y-76950001I0J135000D01*
G01*
G37*
%TD*%
%TO.C,R4*%
G36*
G01*
X173395001Y-71920001D02*
X173395001Y-71550001D01*
G75*
G02*
X173530001Y-71415001I135000J0D01*
G01*
X173800001Y-71415001D01*
G75*
G02*
X173935001Y-71550001I0J-135000D01*
G01*
X173935001Y-71920001D01*
G75*
G02*
X173800001Y-72055001I-135000J0D01*
G01*
X173530001Y-72055001D01*
G75*
G02*
X173395001Y-71920001I0J135000D01*
G01*
G37*
G36*
G01*
X172375001Y-71920001D02*
X172375001Y-71550001D01*
G75*
G02*
X172510001Y-71415001I135000J0D01*
G01*
X172780001Y-71415001D01*
G75*
G02*
X172915001Y-71550001I0J-135000D01*
G01*
X172915001Y-71920001D01*
G75*
G02*
X172780001Y-72055001I-135000J0D01*
G01*
X172510001Y-72055001D01*
G75*
G02*
X172375001Y-71920001I0J135000D01*
G01*
G37*
%TD*%
%TO.C,R3*%
G36*
G01*
X179465001Y-64770001D02*
X179465001Y-64400001D01*
G75*
G02*
X179600001Y-64265001I135000J0D01*
G01*
X179870001Y-64265001D01*
G75*
G02*
X180005001Y-64400001I0J-135000D01*
G01*
X180005001Y-64770001D01*
G75*
G02*
X179870001Y-64905001I-135000J0D01*
G01*
X179600001Y-64905001D01*
G75*
G02*
X179465001Y-64770001I0J135000D01*
G01*
G37*
G36*
G01*
X178445001Y-64770001D02*
X178445001Y-64400001D01*
G75*
G02*
X178580001Y-64265001I135000J0D01*
G01*
X178850001Y-64265001D01*
G75*
G02*
X178985001Y-64400001I0J-135000D01*
G01*
X178985001Y-64770001D01*
G75*
G02*
X178850001Y-64905001I-135000J0D01*
G01*
X178580001Y-64905001D01*
G75*
G02*
X178445001Y-64770001I0J135000D01*
G01*
G37*
%TD*%
%TO.C,R2*%
G36*
G01*
X149830000Y-64765000D02*
X149830000Y-64395000D01*
G75*
G02*
X149965000Y-64260000I135000J0D01*
G01*
X150235000Y-64260000D01*
G75*
G02*
X150370000Y-64395000I0J-135000D01*
G01*
X150370000Y-64765000D01*
G75*
G02*
X150235000Y-64900000I-135000J0D01*
G01*
X149965000Y-64900000D01*
G75*
G02*
X149830000Y-64765000I0J135000D01*
G01*
G37*
G36*
G01*
X148810000Y-64765000D02*
X148810000Y-64395000D01*
G75*
G02*
X148945000Y-64260000I135000J0D01*
G01*
X149215000Y-64260000D01*
G75*
G02*
X149350000Y-64395000I0J-135000D01*
G01*
X149350000Y-64765000D01*
G75*
G02*
X149215000Y-64900000I-135000J0D01*
G01*
X148945000Y-64900000D01*
G75*
G02*
X148810000Y-64765000I0J135000D01*
G01*
G37*
%TD*%
%TO.C,R1*%
G36*
G01*
X189030000Y-108015000D02*
X189030000Y-107645000D01*
G75*
G02*
X189165000Y-107510000I135000J0D01*
G01*
X189435000Y-107510000D01*
G75*
G02*
X189570000Y-107645000I0J-135000D01*
G01*
X189570000Y-108015000D01*
G75*
G02*
X189435000Y-108150000I-135000J0D01*
G01*
X189165000Y-108150000D01*
G75*
G02*
X189030000Y-108015000I0J135000D01*
G01*
G37*
G36*
G01*
X188010000Y-108015000D02*
X188010000Y-107645000D01*
G75*
G02*
X188145000Y-107510000I135000J0D01*
G01*
X188415000Y-107510000D01*
G75*
G02*
X188550000Y-107645000I0J-135000D01*
G01*
X188550000Y-108015000D01*
G75*
G02*
X188415000Y-108150000I-135000J0D01*
G01*
X188145000Y-108150000D01*
G75*
G02*
X188010000Y-108015000I0J135000D01*
G01*
G37*
%TD*%
%TO.C,L1*%
G36*
G01*
X135890000Y-79986250D02*
X135890000Y-79473750D01*
G75*
G02*
X136108750Y-79255000I218750J0D01*
G01*
X136546250Y-79255000D01*
G75*
G02*
X136765000Y-79473750I0J-218750D01*
G01*
X136765000Y-79986250D01*
G75*
G02*
X136546250Y-80205000I-218750J0D01*
G01*
X136108750Y-80205000D01*
G75*
G02*
X135890000Y-79986250I0J218750D01*
G01*
G37*
G36*
G01*
X134315000Y-79986250D02*
X134315000Y-79473750D01*
G75*
G02*
X134533750Y-79255000I218750J0D01*
G01*
X134971250Y-79255000D01*
G75*
G02*
X135190000Y-79473750I0J-218750D01*
G01*
X135190000Y-79986250D01*
G75*
G02*
X134971250Y-80205000I-218750J0D01*
G01*
X134533750Y-80205000D01*
G75*
G02*
X134315000Y-79986250I0J218750D01*
G01*
G37*
%TD*%
D16*
%TO.C,J1*%
X182990000Y-51842500D03*
D17*
X181990000Y-54542500D03*
X181340000Y-54542500D03*
X180690000Y-54542500D03*
X183290000Y-54542500D03*
X182640000Y-54542500D03*
D16*
X180990000Y-51842500D03*
%TD*%
%TO.C,D4*%
G36*
G01*
X200745001Y-58066251D02*
X200745001Y-57153751D01*
G75*
G02*
X200988751Y-56910001I243750J0D01*
G01*
X201476251Y-56910001D01*
G75*
G02*
X201720001Y-57153751I0J-243750D01*
G01*
X201720001Y-58066251D01*
G75*
G02*
X201476251Y-58310001I-243750J0D01*
G01*
X200988751Y-58310001D01*
G75*
G02*
X200745001Y-58066251I0J243750D01*
G01*
G37*
G36*
G01*
X198870001Y-58066251D02*
X198870001Y-57153751D01*
G75*
G02*
X199113751Y-56910001I243750J0D01*
G01*
X199601251Y-56910001D01*
G75*
G02*
X199845001Y-57153751I0J-243750D01*
G01*
X199845001Y-58066251D01*
G75*
G02*
X199601251Y-58310001I-243750J0D01*
G01*
X199113751Y-58310001D01*
G75*
G02*
X198870001Y-58066251I0J243750D01*
G01*
G37*
%TD*%
%TO.C,D3*%
G36*
G01*
X190040000Y-61486250D02*
X190040000Y-60573750D01*
G75*
G02*
X190283750Y-60330000I243750J0D01*
G01*
X190771250Y-60330000D01*
G75*
G02*
X191015000Y-60573750I0J-243750D01*
G01*
X191015000Y-61486250D01*
G75*
G02*
X190771250Y-61730000I-243750J0D01*
G01*
X190283750Y-61730000D01*
G75*
G02*
X190040000Y-61486250I0J243750D01*
G01*
G37*
G36*
G01*
X188165000Y-61486250D02*
X188165000Y-60573750D01*
G75*
G02*
X188408750Y-60330000I243750J0D01*
G01*
X188896250Y-60330000D01*
G75*
G02*
X189140000Y-60573750I0J-243750D01*
G01*
X189140000Y-61486250D01*
G75*
G02*
X188896250Y-61730000I-243750J0D01*
G01*
X188408750Y-61730000D01*
G75*
G02*
X188165000Y-61486250I0J243750D01*
G01*
G37*
%TD*%
%TO.C,D2*%
G36*
G01*
X188702500Y-68586250D02*
X188702500Y-67673750D01*
G75*
G02*
X188946250Y-67430000I243750J0D01*
G01*
X189433750Y-67430000D01*
G75*
G02*
X189677500Y-67673750I0J-243750D01*
G01*
X189677500Y-68586250D01*
G75*
G02*
X189433750Y-68830000I-243750J0D01*
G01*
X188946250Y-68830000D01*
G75*
G02*
X188702500Y-68586250I0J243750D01*
G01*
G37*
G36*
G01*
X186827500Y-68586250D02*
X186827500Y-67673750D01*
G75*
G02*
X187071250Y-67430000I243750J0D01*
G01*
X187558750Y-67430000D01*
G75*
G02*
X187802500Y-67673750I0J-243750D01*
G01*
X187802500Y-68586250D01*
G75*
G02*
X187558750Y-68830000I-243750J0D01*
G01*
X187071250Y-68830000D01*
G75*
G02*
X186827500Y-68586250I0J243750D01*
G01*
G37*
%TD*%
%TO.C,D1*%
G36*
G01*
X196295001Y-58066251D02*
X196295001Y-57153751D01*
G75*
G02*
X196538751Y-56910001I243750J0D01*
G01*
X197026251Y-56910001D01*
G75*
G02*
X197270001Y-57153751I0J-243750D01*
G01*
X197270001Y-58066251D01*
G75*
G02*
X197026251Y-58310001I-243750J0D01*
G01*
X196538751Y-58310001D01*
G75*
G02*
X196295001Y-58066251I0J243750D01*
G01*
G37*
G36*
G01*
X194420001Y-58066251D02*
X194420001Y-57153751D01*
G75*
G02*
X194663751Y-56910001I243750J0D01*
G01*
X195151251Y-56910001D01*
G75*
G02*
X195395001Y-57153751I0J-243750D01*
G01*
X195395001Y-58066251D01*
G75*
G02*
X195151251Y-58310001I-243750J0D01*
G01*
X194663751Y-58310001D01*
G75*
G02*
X194420001Y-58066251I0J243750D01*
G01*
G37*
%TD*%
%TO.C,C10*%
G36*
G01*
X167460000Y-59400000D02*
X167460000Y-59060000D01*
G75*
G02*
X167600000Y-58920000I140000J0D01*
G01*
X167880000Y-58920000D01*
G75*
G02*
X168020000Y-59060000I0J-140000D01*
G01*
X168020000Y-59400000D01*
G75*
G02*
X167880000Y-59540000I-140000J0D01*
G01*
X167600000Y-59540000D01*
G75*
G02*
X167460000Y-59400000I0J140000D01*
G01*
G37*
G36*
G01*
X166500000Y-59400000D02*
X166500000Y-59060000D01*
G75*
G02*
X166640000Y-58920000I140000J0D01*
G01*
X166920000Y-58920000D01*
G75*
G02*
X167060000Y-59060000I0J-140000D01*
G01*
X167060000Y-59400000D01*
G75*
G02*
X166920000Y-59540000I-140000J0D01*
G01*
X166640000Y-59540000D01*
G75*
G02*
X166500000Y-59400000I0J140000D01*
G01*
G37*
%TD*%
%TO.C,C9*%
G36*
G01*
X184590000Y-93750000D02*
X184590000Y-93410000D01*
G75*
G02*
X184730000Y-93270000I140000J0D01*
G01*
X185010000Y-93270000D01*
G75*
G02*
X185150000Y-93410000I0J-140000D01*
G01*
X185150000Y-93750000D01*
G75*
G02*
X185010000Y-93890000I-140000J0D01*
G01*
X184730000Y-93890000D01*
G75*
G02*
X184590000Y-93750000I0J140000D01*
G01*
G37*
G36*
G01*
X183630000Y-93750000D02*
X183630000Y-93410000D01*
G75*
G02*
X183770000Y-93270000I140000J0D01*
G01*
X184050000Y-93270000D01*
G75*
G02*
X184190000Y-93410000I0J-140000D01*
G01*
X184190000Y-93750000D01*
G75*
G02*
X184050000Y-93890000I-140000J0D01*
G01*
X183770000Y-93890000D01*
G75*
G02*
X183630000Y-93750000I0J140000D01*
G01*
G37*
%TD*%
%TO.C,C8*%
G36*
G01*
X115765000Y-61680000D02*
X115765000Y-61180000D01*
G75*
G02*
X115990000Y-60955000I225000J0D01*
G01*
X116440000Y-60955000D01*
G75*
G02*
X116665000Y-61180000I0J-225000D01*
G01*
X116665000Y-61680000D01*
G75*
G02*
X116440000Y-61905000I-225000J0D01*
G01*
X115990000Y-61905000D01*
G75*
G02*
X115765000Y-61680000I0J225000D01*
G01*
G37*
G36*
G01*
X114215000Y-61680000D02*
X114215000Y-61180000D01*
G75*
G02*
X114440000Y-60955000I225000J0D01*
G01*
X114890000Y-60955000D01*
G75*
G02*
X115115000Y-61180000I0J-225000D01*
G01*
X115115000Y-61680000D01*
G75*
G02*
X114890000Y-61905000I-225000J0D01*
G01*
X114440000Y-61905000D01*
G75*
G02*
X114215000Y-61680000I0J225000D01*
G01*
G37*
%TD*%
%TO.C,C7*%
G36*
G01*
X132345001Y-74115001D02*
X132345001Y-73775001D01*
G75*
G02*
X132485001Y-73635001I140000J0D01*
G01*
X132765001Y-73635001D01*
G75*
G02*
X132905001Y-73775001I0J-140000D01*
G01*
X132905001Y-74115001D01*
G75*
G02*
X132765001Y-74255001I-140000J0D01*
G01*
X132485001Y-74255001D01*
G75*
G02*
X132345001Y-74115001I0J140000D01*
G01*
G37*
G36*
G01*
X131385001Y-74115001D02*
X131385001Y-73775001D01*
G75*
G02*
X131525001Y-73635001I140000J0D01*
G01*
X131805001Y-73635001D01*
G75*
G02*
X131945001Y-73775001I0J-140000D01*
G01*
X131945001Y-74115001D01*
G75*
G02*
X131805001Y-74255001I-140000J0D01*
G01*
X131525001Y-74255001D01*
G75*
G02*
X131385001Y-74115001I0J140000D01*
G01*
G37*
%TD*%
%TO.C,C6*%
G36*
G01*
X135255001Y-72315001D02*
X135255001Y-71975001D01*
G75*
G02*
X135395001Y-71835001I140000J0D01*
G01*
X135675001Y-71835001D01*
G75*
G02*
X135815001Y-71975001I0J-140000D01*
G01*
X135815001Y-72315001D01*
G75*
G02*
X135675001Y-72455001I-140000J0D01*
G01*
X135395001Y-72455001D01*
G75*
G02*
X135255001Y-72315001I0J140000D01*
G01*
G37*
G36*
G01*
X134295001Y-72315001D02*
X134295001Y-71975001D01*
G75*
G02*
X134435001Y-71835001I140000J0D01*
G01*
X134715001Y-71835001D01*
G75*
G02*
X134855001Y-71975001I0J-140000D01*
G01*
X134855001Y-72315001D01*
G75*
G02*
X134715001Y-72455001I-140000J0D01*
G01*
X134435001Y-72455001D01*
G75*
G02*
X134295001Y-72315001I0J140000D01*
G01*
G37*
%TD*%
%TO.C,C5*%
G36*
G01*
X184615001Y-112015001D02*
X184615001Y-111675001D01*
G75*
G02*
X184755001Y-111535001I140000J0D01*
G01*
X185035001Y-111535001D01*
G75*
G02*
X185175001Y-111675001I0J-140000D01*
G01*
X185175001Y-112015001D01*
G75*
G02*
X185035001Y-112155001I-140000J0D01*
G01*
X184755001Y-112155001D01*
G75*
G02*
X184615001Y-112015001I0J140000D01*
G01*
G37*
G36*
G01*
X183655001Y-112015001D02*
X183655001Y-111675001D01*
G75*
G02*
X183795001Y-111535001I140000J0D01*
G01*
X184075001Y-111535001D01*
G75*
G02*
X184215001Y-111675001I0J-140000D01*
G01*
X184215001Y-112015001D01*
G75*
G02*
X184075001Y-112155001I-140000J0D01*
G01*
X183795001Y-112155001D01*
G75*
G02*
X183655001Y-112015001I0J140000D01*
G01*
G37*
%TD*%
%TO.C,C4*%
G36*
G01*
X144990000Y-72050000D02*
X144990000Y-71710000D01*
G75*
G02*
X145130000Y-71570000I140000J0D01*
G01*
X145410000Y-71570000D01*
G75*
G02*
X145550000Y-71710000I0J-140000D01*
G01*
X145550000Y-72050000D01*
G75*
G02*
X145410000Y-72190000I-140000J0D01*
G01*
X145130000Y-72190000D01*
G75*
G02*
X144990000Y-72050000I0J140000D01*
G01*
G37*
G36*
G01*
X144030000Y-72050000D02*
X144030000Y-71710000D01*
G75*
G02*
X144170000Y-71570000I140000J0D01*
G01*
X144450000Y-71570000D01*
G75*
G02*
X144590000Y-71710000I0J-140000D01*
G01*
X144590000Y-72050000D01*
G75*
G02*
X144450000Y-72190000I-140000J0D01*
G01*
X144170000Y-72190000D01*
G75*
G02*
X144030000Y-72050000I0J140000D01*
G01*
G37*
%TD*%
%TO.C,C3*%
G36*
G01*
X140990000Y-67330000D02*
X140990000Y-66830000D01*
G75*
G02*
X141215000Y-66605000I225000J0D01*
G01*
X141665000Y-66605000D01*
G75*
G02*
X141890000Y-66830000I0J-225000D01*
G01*
X141890000Y-67330000D01*
G75*
G02*
X141665000Y-67555000I-225000J0D01*
G01*
X141215000Y-67555000D01*
G75*
G02*
X140990000Y-67330000I0J225000D01*
G01*
G37*
G36*
G01*
X139440000Y-67330000D02*
X139440000Y-66830000D01*
G75*
G02*
X139665000Y-66605000I225000J0D01*
G01*
X140115000Y-66605000D01*
G75*
G02*
X140340000Y-66830000I0J-225000D01*
G01*
X140340000Y-67330000D01*
G75*
G02*
X140115000Y-67555000I-225000J0D01*
G01*
X139665000Y-67555000D01*
G75*
G02*
X139440000Y-67330000I0J225000D01*
G01*
G37*
%TD*%
%TO.C,C2*%
G36*
G01*
X184615001Y-113985001D02*
X184615001Y-113645001D01*
G75*
G02*
X184755001Y-113505001I140000J0D01*
G01*
X185035001Y-113505001D01*
G75*
G02*
X185175001Y-113645001I0J-140000D01*
G01*
X185175001Y-113985001D01*
G75*
G02*
X185035001Y-114125001I-140000J0D01*
G01*
X184755001Y-114125001D01*
G75*
G02*
X184615001Y-113985001I0J140000D01*
G01*
G37*
G36*
G01*
X183655001Y-113985001D02*
X183655001Y-113645001D01*
G75*
G02*
X183795001Y-113505001I140000J0D01*
G01*
X184075001Y-113505001D01*
G75*
G02*
X184215001Y-113645001I0J-140000D01*
G01*
X184215001Y-113985001D01*
G75*
G02*
X184075001Y-114125001I-140000J0D01*
G01*
X183795001Y-114125001D01*
G75*
G02*
X183655001Y-113985001I0J140000D01*
G01*
G37*
%TD*%
%TO.C,C1*%
G36*
G01*
X117965000Y-57530000D02*
X117965000Y-57030000D01*
G75*
G02*
X118190000Y-56805000I225000J0D01*
G01*
X118640000Y-56805000D01*
G75*
G02*
X118865000Y-57030000I0J-225000D01*
G01*
X118865000Y-57530000D01*
G75*
G02*
X118640000Y-57755000I-225000J0D01*
G01*
X118190000Y-57755000D01*
G75*
G02*
X117965000Y-57530000I0J225000D01*
G01*
G37*
G36*
G01*
X116415000Y-57530000D02*
X116415000Y-57030000D01*
G75*
G02*
X116640000Y-56805000I225000J0D01*
G01*
X117090000Y-56805000D01*
G75*
G02*
X117315000Y-57030000I0J-225000D01*
G01*
X117315000Y-57530000D01*
G75*
G02*
X117090000Y-57755000I-225000J0D01*
G01*
X116640000Y-57755000D01*
G75*
G02*
X116415000Y-57530000I0J225000D01*
G01*
G37*
%TD*%
M02*
